<?xml version="1.0" encoding="UTF-8" standalone="no"?>
<!-- Created with Inkscape (http://www.inkscape.org/) -->

<svg
   version="1.1"
   id="svg237"
   xml:space="preserve"
   width="682.66669"
   height="682.66669"
   viewBox="0 0 682.66669 682.66669"
   xmlns="http://www.w3.org/2000/svg"
   xmlns:svg="http://www.w3.org/2000/svg"><defs
     id="defs241"><clipPath
       clipPathUnits="userSpaceOnUse"
       id="clipPath251"><path
         d="M 0,512 H 512 V 0 H 0 Z"
         id="path249" /></clipPath></defs><g
     id="g243"
     transform="matrix(1.3333333,0,0,-1.3333333,0,682.66667)"><g
       id="g245"><g
         id="g247"
         clip-path="url(#clipPath251)"><g
           id="g253"
           transform="translate(338.8335,214.9365)"><path
             d="m 0,0 c 0,-91.495 -74.172,-165.667 -165.667,-165.667 -91.495,0 -165.666,74.172 -165.666,165.667 0,91.495 74.171,165.667 165.666,165.667 C -74.172,165.667 0,91.495 0,0"
             style="fill:#808b95;fill-opacity:1;fill-rule:nonzero;stroke:none"
             id="path255" /></g><g
           id="g257"
           transform="translate(226.4731,371.8379)"><path
             d="m 0,0 c 43.683,-29.83 72.36,-80.014 72.36,-136.901 0,-91.495 -74.171,-165.667 -165.667,-165.667 -18.649,0 -36.578,3.084 -53.306,8.765 26.574,-18.147 58.699,-28.765 93.306,-28.765 91.496,0 165.667,74.172 165.667,165.667 C 112.36,-84.056 65.343,-22.193 0,0"
             style="fill:#5e6b75;fill-opacity:1;fill-rule:nonzero;stroke:none"
             id="path259" /></g><g
           id="g261"
           transform="translate(173.1665,106.9185)"><path
             d="m 0,0 c -59.562,0 -108.018,48.457 -108.018,108.018 0,59.562 48.456,108.018 108.018,108.018 59.562,0 108.018,-48.456 108.018,-108.018 C 108.018,48.457 59.562,0 0,0"
             style="fill:#f6f9f9;fill-opacity:1;fill-rule:nonzero;stroke:none"
             id="path263" /></g><g
           id="g265"
           transform="translate(200.2886,319.5049)"><path
             d="m 0,0 c 24.901,-19.805 40.896,-50.353 40.896,-84.568 0,-59.562 -48.457,-108.018 -108.018,-108.018 -9.364,0 -18.452,1.199 -27.122,3.449 18.446,-14.671 41.777,-23.449 67.122,-23.449 59.561,0 108.018,48.456 108.018,108.018 C 80.896,-54.371 46.477,-12.063 0,0"
             style="fill:#e7ecf1;fill-opacity:1;fill-rule:nonzero;stroke:none"
             id="path267" /></g><g
           id="g269"
           transform="translate(186.5815,214.9365)"><path
             d="m 0,0 c 0,-7.409 -6.006,-13.415 -13.415,-13.415 -7.409,0 -13.415,6.006 -13.415,13.415 0,7.409 6.006,13.415 13.415,13.415 C -6.006,13.415 0,7.409 0,0"
             style="fill:#707dd3;fill-opacity:1;fill-rule:nonzero;stroke:none"
             id="path271" /></g><g
           id="g273"
           transform="translate(160.1621,258.6475)"><path
             d="M 0,0 V 38.281 C -20.668,35.015 -38.818,24.094 -51.459,8.523 l 33.112,-19.117 c 3.689,-2.13 8.245,-2.142 11.917,0.018 0.165,0.097 0.332,0.194 0.499,0.289 C -2.243,-8.191 0,-4.242 0,0"
             style="fill:#5e6b75;fill-opacity:1;fill-rule:nonzero;stroke:none"
             id="path275" /></g><g
           id="g277"
           transform="translate(204.5181,248.0532)"><path
             d="M 0,0 33.112,19.117 C 20.471,34.688 2.322,45.609 -18.347,48.875 V 10.594 c 0,-4.242 2.243,-8.191 5.931,-10.287 0.167,-0.095 0.334,-0.191 0.499,-0.288 C -8.245,-2.142 -3.689,-2.13 0,0"
             style="fill:#5e6b75;fill-opacity:1;fill-rule:nonzero;stroke:none"
             id="path279" /></g><g
           id="g281"
           transform="translate(134.752,214.9365)"><path
             d="M 0,0 V 0.069 C 0.008,4.4 -2.196,8.43 -5.946,10.595 L -39.08,29.725 C -42.634,20.489 -44.603,10.473 -44.603,0 c 0,-10.473 1.969,-20.49 5.523,-29.725 l 33.134,19.129 C -2.196,-8.431 0.008,-4.4 0,-0.07 Z"
             style="fill:#5e6b75;fill-opacity:1;fill-rule:nonzero;stroke:none"
             id="path283" /></g><g
           id="g285"
           transform="translate(250.6611,244.6616)"><path
             d="m 0,0 -33.134,-19.13 c -3.75,-2.165 -5.954,-6.195 -5.946,-10.526 0,-0.023 0,-0.046 0,-0.069 0,-0.024 0,-0.047 0,-0.07 -0.008,-4.33 2.196,-8.361 5.946,-10.526 L 0,-59.45 c 3.555,9.235 5.523,19.252 5.523,29.725 C 5.523,-19.252 3.555,-9.236 0,0"
             style="fill:#5e6b75;fill-opacity:1;fill-rule:nonzero;stroke:none"
             id="path287" /></g><g
           id="g289"
           transform="translate(141.8154,181.8193)"><path
             d="m 0,0 -33.112,-19.117 c 12.641,-15.571 30.79,-26.492 51.459,-29.758 v 38.281 c 0,4.242 -2.243,8.191 -5.931,10.287 -0.167,0.095 -0.334,0.191 -0.499,0.289 C 8.245,2.142 3.689,2.13 0,0"
             style="fill:#5e6b75;fill-opacity:1;fill-rule:nonzero;stroke:none"
             id="path291" /></g><g
           id="g293"
           transform="translate(186.1709,171.2256)"><path
             d="m 0,0 v -38.281 c 20.669,3.266 38.818,14.187 51.459,29.758 L 18.347,10.594 C 14.658,12.724 10.103,12.736 6.431,10.576 6.265,10.478 6.099,10.382 5.932,10.287 2.243,8.191 0,4.242 0,0"
             style="fill:#5e6b75;fill-opacity:1;fill-rule:nonzero;stroke:none"
             id="path295" /></g><g
           id="g297"
           transform="translate(470.6729,187.3662)"><path
             d="m 0,0 h -134.136 c -11.808,-70.477 -68.102,-125.868 -139.032,-136.312 3.013,-0.88 6.192,-1.37 9.489,-1.37 H 0 c 18.682,0 33.827,15.145 33.827,33.827 v 70.028 C 33.827,-15.145 18.682,0 0,0"
             style="fill:#808b95;fill-opacity:1;fill-rule:nonzero;stroke:none"
             id="path299" /></g><g
           id="g301"
           transform="translate(470.6729,462.7305)"><path
             d="m 0,0 h -263.679 c -18.682,0 -33.827,-15.146 -33.827,-33.828 v -48.299 c 49.221,0 93.421,-21.474 123.764,-55.556 H 0 c 18.682,0 33.827,15.145 33.827,33.828 v 70.027 C 33.827,-15.146 18.682,0 0,0"
             style="fill:#808b95;fill-opacity:1;fill-rule:nonzero;stroke:none"
             id="path303" /></g><g
           id="g305"
           transform="translate(470.6729,325.0479)"><path
             d="m 0,0 h -173.742 c 26.06,-29.27 41.903,-67.838 41.903,-110.111 0,-9.395 -0.795,-18.603 -2.297,-27.571 H 0 c 18.682,0 33.827,15.145 33.827,33.827 v 70.028 C 33.827,-15.145 18.682,0 0,0"
             style="fill:#808b95;fill-opacity:1;fill-rule:nonzero;stroke:none"
             id="path307" /></g><g
           id="g309"
           transform="translate(470.6729,187.3662)"><path
             d="m 0,0 h -9.129 c 1.894,-4.223 2.956,-8.899 2.956,-13.827 v -70.028 c 0,-18.682 -15.145,-33.827 -33.827,-33.827 h -177.798 c -16.881,-9.283 -35.554,-15.713 -55.37,-18.63 3.013,-0.88 6.192,-1.37 9.489,-1.37 H 0 c 18.682,0 33.827,15.145 33.827,33.827 v 70.028 C 33.827,-15.145 18.682,0 0,0"
             style="fill:#5e6b75;fill-opacity:1;fill-rule:nonzero;stroke:none"
             id="path311" /></g><g
           id="g313"
           transform="translate(470.6729,462.7305)"><path
             d="m 0,0 h -9.129 c 1.894,-4.223 2.956,-8.899 2.956,-13.827 v -70.028 c 0,-18.682 -15.145,-33.827 -33.827,-33.827 h -154.975 c 7.65,-6.038 14.759,-12.729 21.233,-20 H 0 c 18.682,0 33.827,15.145 33.827,33.827 v 70.028 C 33.827,-15.145 18.682,0 0,0"
             style="fill:#5e6b75;fill-opacity:1;fill-rule:nonzero;stroke:none"
             id="path315" /></g><g
           id="g317"
           transform="translate(470.6729,325.0483)"><path
             d="m 0,0 h -9.129 c 1.894,-4.223 2.956,-8.899 2.956,-13.827 v -70.028 c 0,-18.683 -15.145,-33.827 -33.827,-33.827 h -92.017 c -0.308,-6.78 -1.023,-13.455 -2.119,-20 H 0 c 18.682,0 33.827,15.144 33.827,33.827 v 70.028 C 33.827,-15.145 18.682,0 0,0"
             style="fill:#5e6b75;fill-opacity:1;fill-rule:nonzero;stroke:none"
             id="path319" /></g><g
           id="g321"
           transform="translate(119.8594,371.8398)"><path
             d="m 0,0 c 16.729,5.682 34.658,8.763 53.307,8.763 91.495,0 165.667,-74.171 165.667,-165.666 0,-91.495 -74.172,-165.667 -165.667,-165.667 -91.495,0 -165.666,74.172 -165.666,165.667 0,60.181 32.089,112.867 80.091,141.882"
             style="fill:none;stroke:#000000;stroke-width:15;stroke-linecap:round;stroke-linejoin:round;stroke-miterlimit:10;stroke-dasharray:none;stroke-opacity:1"
             id="path323" /></g><g
           id="g325"
           transform="translate(268.2632,310.0327)"><path
             d="m 0,0 c 52.521,-52.52 52.521,-137.672 0,-190.193 -26.26,-26.26 -60.678,-39.39 -95.097,-39.39"
             style="fill:none;stroke:#000000;stroke-width:15;stroke-linecap:round;stroke-linejoin:round;stroke-miterlimit:10;stroke-dasharray:none;stroke-opacity:1"
             id="path327" /></g><g
           id="g329"
           transform="translate(78.0703,119.8398)"><path
             d="m 0,0 c -52.521,52.521 -52.521,137.673 0,190.193 26.26,26.26 60.678,39.39 95.096,39.39"
             style="fill:none;stroke:#000000;stroke-width:15;stroke-linecap:round;stroke-linejoin:round;stroke-miterlimit:10;stroke-dasharray:none;stroke-opacity:1"
             id="path331" /></g><g
           id="g333"
           transform="translate(237.6318,128.314)"><path
             d="m 0,0 c -18.006,-13.435 -40.323,-21.396 -64.465,-21.396 -59.562,0 -108.018,48.457 -108.018,108.019 0,59.561 48.456,108.018 108.018,108.018 59.561,0 108.018,-48.457 108.018,-108.018 0,-22.31 -6.799,-43.062 -18.433,-60.293"
             style="fill:none;stroke:#000000;stroke-width:15;stroke-linecap:round;stroke-linejoin:round;stroke-miterlimit:10;stroke-dasharray:none;stroke-opacity:1"
             id="path335" /></g><g
           id="g337"
           transform="translate(186.5815,214.9365)"><path
             d="m 0,0 c 0,-7.409 -6.006,-13.415 -13.415,-13.415 -7.409,0 -13.415,6.006 -13.415,13.415 0,7.409 6.006,13.415 13.415,13.415 C -6.006,13.415 0,7.409 0,0 Z"
             style="fill:none;stroke:#000000;stroke-width:15;stroke-linecap:round;stroke-linejoin:round;stroke-miterlimit:10;stroke-dasharray:none;stroke-opacity:1"
             id="path339" /></g><g
           id="g341"
           transform="translate(160.1621,258.6475)"><path
             d="M 0,0 V 38.281 C -20.668,35.015 -38.818,24.094 -51.459,8.523 l 33.112,-19.117 c 3.689,-2.13 8.245,-2.142 11.917,0.018 0.165,0.097 0.332,0.194 0.499,0.289 C -2.243,-8.191 0,-4.242 0,0 Z"
             style="fill:none;stroke:#000000;stroke-width:15;stroke-linecap:round;stroke-linejoin:round;stroke-miterlimit:10;stroke-dasharray:none;stroke-opacity:1"
             id="path343" /></g><g
           id="g345"
           transform="translate(204.5181,248.0532)"><path
             d="M 0,0 33.112,19.117 C 20.471,34.688 2.322,45.609 -18.347,48.875 V 10.594 c 0,-4.242 2.243,-8.191 5.931,-10.287 0.167,-0.095 0.334,-0.191 0.499,-0.288 C -8.245,-2.142 -3.689,-2.13 0,0 Z"
             style="fill:none;stroke:#000000;stroke-width:15;stroke-linecap:round;stroke-linejoin:round;stroke-miterlimit:10;stroke-dasharray:none;stroke-opacity:1"
             id="path347" /></g><g
           id="g349"
           transform="translate(134.752,214.9365)"><path
             d="M 0,0 V 0.069 C 0.008,4.4 -2.196,8.43 -5.946,10.595 L -39.08,29.725 C -42.634,20.489 -44.603,10.473 -44.603,0 c 0,-10.473 1.969,-20.49 5.523,-29.725 l 33.134,19.129 C -2.196,-8.431 0.008,-4.4 0,-0.07 Z"
             style="fill:none;stroke:#000000;stroke-width:15;stroke-linecap:round;stroke-linejoin:round;stroke-miterlimit:10;stroke-dasharray:none;stroke-opacity:1"
             id="path351" /></g><g
           id="g353"
           transform="translate(250.6611,244.6616)"><path
             d="m 0,0 -33.134,-19.13 c -3.75,-2.165 -5.954,-6.195 -5.946,-10.526 0,-0.023 0,-0.046 0,-0.069 0,-0.024 0,-0.047 0,-0.07 -0.008,-4.33 2.196,-8.361 5.946,-10.526 L 0,-59.45 c 3.555,9.235 5.523,19.252 5.523,29.725 C 5.523,-19.252 3.555,-9.236 0,0 Z"
             style="fill:none;stroke:#000000;stroke-width:15;stroke-linecap:round;stroke-linejoin:round;stroke-miterlimit:10;stroke-dasharray:none;stroke-opacity:1"
             id="path355" /></g><g
           id="g357"
           transform="translate(141.8154,181.8193)"><path
             d="m 0,0 -33.112,-19.117 c 12.641,-15.571 30.79,-26.492 51.459,-29.758 v 38.281 c 0,4.242 -2.243,8.191 -5.931,10.287 -0.167,0.095 -0.334,0.191 -0.499,0.289 C 8.245,2.142 3.689,2.13 0,0 Z"
             style="fill:none;stroke:#000000;stroke-width:15;stroke-linecap:round;stroke-linejoin:round;stroke-miterlimit:10;stroke-dasharray:none;stroke-opacity:1"
             id="path359" /></g><g
           id="g361"
           transform="translate(186.1709,171.2256)"><path
             d="m 0,0 v -38.281 c 20.669,3.266 38.818,14.187 51.459,29.758 L 18.347,10.594 C 14.658,12.724 10.103,12.736 6.431,10.576 6.265,10.478 6.099,10.382 5.932,10.287 2.243,8.191 0,4.242 0,0 Z"
             style="fill:none;stroke:#000000;stroke-width:15;stroke-linecap:round;stroke-linejoin:round;stroke-miterlimit:10;stroke-dasharray:none;stroke-opacity:1"
             id="path363" /></g><g
           id="g365"
           transform="translate(504.5,393.8892)"><path
             d="M 0,0 H -331.333"
             style="fill:none;stroke:#000000;stroke-width:15;stroke-linecap:round;stroke-linejoin:round;stroke-miterlimit:10;stroke-dasharray:none;stroke-opacity:1"
             id="path367" /></g><g
           id="g369"
           transform="translate(504.5,363.8892)"><path
             d="M 0,0 H -257.455"
             style="fill:none;stroke:#000000;stroke-width:15;stroke-linecap:round;stroke-linejoin:round;stroke-miterlimit:10;stroke-dasharray:none;stroke-opacity:1"
             id="path371" /></g><g
           id="g373"
           transform="translate(504.5,423.8892)"><path
             d="M 0,0 H -331.333"
             style="fill:none;stroke:#000000;stroke-width:15;stroke-linecap:round;stroke-linejoin:round;stroke-miterlimit:10;stroke-dasharray:none;stroke-opacity:1"
             id="path375" /></g><g
           id="g377"
           transform="translate(248.4663,462.73)"><path
             d="M 0,0 -38.431,-38.43"
             style="fill:none;stroke:#000000;stroke-width:15;stroke-linecap:round;stroke-linejoin:round;stroke-miterlimit:10;stroke-dasharray:none;stroke-opacity:1"
             id="path379" /></g><g
           id="g381"
           transform="translate(292.2993,462.73)"><path
             d="M 0,0 -38.431,-38.43"
             style="fill:none;stroke:#000000;stroke-width:15;stroke-linecap:round;stroke-linejoin:round;stroke-miterlimit:10;stroke-dasharray:none;stroke-opacity:1"
             id="path383" /></g><g
           id="g385"
           transform="translate(336.1318,462.73)"><path
             d="M 0,0 -38.43,-38.43"
             style="fill:none;stroke:#000000;stroke-width:15;stroke-linecap:round;stroke-linejoin:round;stroke-miterlimit:10;stroke-dasharray:none;stroke-opacity:1"
             id="path387" /></g><g
           id="g389"
           transform="translate(379.9648,462.73)"><path
             d="M 0,0 -38.43,-38.43"
             style="fill:none;stroke:#000000;stroke-width:15;stroke-linecap:round;stroke-linejoin:round;stroke-miterlimit:10;stroke-dasharray:none;stroke-opacity:1"
             id="path391" /></g><g
           id="g393"
           transform="translate(423.7979,462.73)"><path
             d="M 0,0 -38.43,-38.43"
             style="fill:none;stroke:#000000;stroke-width:15;stroke-linecap:round;stroke-linejoin:round;stroke-miterlimit:10;stroke-dasharray:none;stroke-opacity:1"
             id="path395" /></g><g
           id="g397"
           transform="translate(467.6309,462.73)"><path
             d="M 0,0 -38.431,-38.43"
             style="fill:none;stroke:#000000;stroke-width:15;stroke-linecap:round;stroke-linejoin:round;stroke-miterlimit:10;stroke-dasharray:none;stroke-opacity:1"
             id="path399" /></g><g
           id="g401"
           transform="translate(336.1318,325.0479)"><path
             d="M 0,0 -38.43,38.431"
             style="fill:none;stroke:#000000;stroke-width:15;stroke-linecap:round;stroke-linejoin:round;stroke-miterlimit:10;stroke-dasharray:none;stroke-opacity:1"
             id="path403" /></g><g
           id="g405"
           transform="translate(379.9648,325.0479)"><path
             d="M 0,0 -38.43,38.431"
             style="fill:none;stroke:#000000;stroke-width:15;stroke-linecap:round;stroke-linejoin:round;stroke-miterlimit:10;stroke-dasharray:none;stroke-opacity:1"
             id="path407" /></g><g
           id="g409"
           transform="translate(423.7979,325.0479)"><path
             d="M 0,0 -38.43,38.431"
             style="fill:none;stroke:#000000;stroke-width:15;stroke-linecap:round;stroke-linejoin:round;stroke-miterlimit:10;stroke-dasharray:none;stroke-opacity:1"
             id="path411" /></g><g
           id="g413"
           transform="translate(467.6309,325.0479)"><path
             d="M 0,0 -38.431,38.431"
             style="fill:none;stroke:#000000;stroke-width:15;stroke-linecap:round;stroke-linejoin:round;stroke-miterlimit:10;stroke-dasharray:none;stroke-opacity:1"
             id="path415" /></g><g
           id="g417"
           transform="translate(504.5,118.3403)"><path
             d="M 0,0 H -196.737"
             style="fill:none;stroke:#000000;stroke-width:15;stroke-linecap:round;stroke-linejoin:round;stroke-miterlimit:10;stroke-dasharray:none;stroke-opacity:1"
             id="path419" /></g><g
           id="g421"
           transform="translate(504.5,148.3403)"><path
             d="M 0,0 H -179.618"
             style="fill:none;stroke:#000000;stroke-width:15;stroke-linecap:round;stroke-linejoin:round;stroke-miterlimit:10;stroke-dasharray:none;stroke-opacity:1"
             id="path423" /></g><g
           id="g425"
           transform="translate(504.5,88.3403)"><path
             d="M 0,0 H -224.486"
             style="fill:none;stroke:#000000;stroke-width:15;stroke-linecap:round;stroke-linejoin:round;stroke-miterlimit:10;stroke-dasharray:none;stroke-opacity:1"
             id="path427" /></g><g
           id="g429"
           transform="translate(292.2993,49.499)"><path
             d="M 0,0 -27.447,27.447"
             style="fill:none;stroke:#000000;stroke-width:15;stroke-linecap:round;stroke-linejoin:round;stroke-miterlimit:10;stroke-dasharray:none;stroke-opacity:1"
             id="path431" /></g><g
           id="g433"
           transform="translate(336.1318,49.499)"><path
             d="M 0,0 -38.43,38.431"
             style="fill:none;stroke:#000000;stroke-width:15;stroke-linecap:round;stroke-linejoin:round;stroke-miterlimit:10;stroke-dasharray:none;stroke-opacity:1"
             id="path435" /></g><g
           id="g437"
           transform="translate(379.9648,49.499)"><path
             d="M 0,0 -38.43,38.431"
             style="fill:none;stroke:#000000;stroke-width:15;stroke-linecap:round;stroke-linejoin:round;stroke-miterlimit:10;stroke-dasharray:none;stroke-opacity:1"
             id="path439" /></g><g
           id="g441"
           transform="translate(423.7979,49.499)"><path
             d="M 0,0 -38.43,38.431"
             style="fill:none;stroke:#000000;stroke-width:15;stroke-linecap:round;stroke-linejoin:round;stroke-miterlimit:10;stroke-dasharray:none;stroke-opacity:1"
             id="path443" /></g><g
           id="g445"
           transform="translate(467.6309,49.499)"><path
             d="M 0,0 -38.431,38.431"
             style="fill:none;stroke:#000000;stroke-width:15;stroke-linecap:round;stroke-linejoin:round;stroke-miterlimit:10;stroke-dasharray:none;stroke-opacity:1"
             id="path447" /></g><g
           id="g449"
           transform="translate(380.1499,187.3662)"><path
             d="M 0,0 -38.615,-38.615"
             style="fill:none;stroke:#000000;stroke-width:15;stroke-linecap:round;stroke-linejoin:round;stroke-miterlimit:10;stroke-dasharray:none;stroke-opacity:1"
             id="path451" /></g><g
           id="g453"
           transform="translate(423.9829,187.3662)"><path
             d="M 0,0 -38.615,-38.615"
             style="fill:none;stroke:#000000;stroke-width:15;stroke-linecap:round;stroke-linejoin:round;stroke-miterlimit:10;stroke-dasharray:none;stroke-opacity:1"
             id="path455" /></g><g
           id="g457"
           transform="translate(467.8154,187.3662)"><path
             d="M 0,0 -38.615,-38.615"
             style="fill:none;stroke:#000000;stroke-width:15;stroke-linecap:round;stroke-linejoin:round;stroke-miterlimit:10;stroke-dasharray:none;stroke-opacity:1"
             id="path459" /></g><g
           id="g461"
           transform="translate(410.7725,256.207)"><path
             d="M 0,0 H 93.728"
             style="fill:none;stroke:#000000;stroke-width:15;stroke-linecap:round;stroke-linejoin:round;stroke-miterlimit:10;stroke-dasharray:none;stroke-opacity:1"
             id="path463" /></g><g
           id="g465"
           transform="translate(333.7456,256.207)"><path
             d="M 0,0 H 42.027"
             style="fill:none;stroke:#000000;stroke-width:15;stroke-linecap:round;stroke-linejoin:round;stroke-miterlimit:10;stroke-dasharray:none;stroke-opacity:1"
             id="path467" /></g><g
           id="g469"
           transform="translate(322.9512,286.207)"><path
             d="M 0,0 H 181.549"
             style="fill:none;stroke:#000000;stroke-width:15;stroke-linecap:round;stroke-linejoin:round;stroke-miterlimit:10;stroke-dasharray:none;stroke-opacity:1"
             id="path471" /></g><g
           id="g473"
           transform="translate(338.8335,226.207)"><path
             d="M 0,0 H 165.667"
             style="fill:none;stroke:#000000;stroke-width:15;stroke-linecap:round;stroke-linejoin:round;stroke-miterlimit:10;stroke-dasharray:none;stroke-opacity:1"
             id="path475" /></g><g
           id="g477"
           transform="translate(429.2002,187.3662)"><path
             d="M 0,0 38.431,38.43"
             style="fill:none;stroke:#000000;stroke-width:15;stroke-linecap:round;stroke-linejoin:round;stroke-miterlimit:10;stroke-dasharray:none;stroke-opacity:1"
             id="path479" /></g><g
           id="g481"
           transform="translate(385.3677,187.3662)"><path
             d="M 0,0 38.43,38.43"
             style="fill:none;stroke:#000000;stroke-width:15;stroke-linecap:round;stroke-linejoin:round;stroke-miterlimit:10;stroke-dasharray:none;stroke-opacity:1"
             id="path483" /></g><g
           id="g485"
           transform="translate(341.5347,187.3662)"><path
             d="M 0,0 38.43,38.43"
             style="fill:none;stroke:#000000;stroke-width:15;stroke-linecap:round;stroke-linejoin:round;stroke-miterlimit:10;stroke-dasharray:none;stroke-opacity:1"
             id="path487" /></g><g
           id="g489"
           transform="translate(429.2002,325.0483)"><path
             d="M 0,0 38.431,-38.431"
             style="fill:none;stroke:#000000;stroke-width:15;stroke-linecap:round;stroke-linejoin:round;stroke-miterlimit:10;stroke-dasharray:none;stroke-opacity:1"
             id="path491" /></g><g
           id="g493"
           transform="translate(385.3677,325.0483)"><path
             d="M 0,0 38.43,-38.431"
             style="fill:none;stroke:#000000;stroke-width:15;stroke-linecap:round;stroke-linejoin:round;stroke-miterlimit:10;stroke-dasharray:none;stroke-opacity:1"
             id="path495" /></g><g
           id="g497"
           transform="translate(341.5347,325.0483)"><path
             d="M 0,0 38.43,-38.431"
             style="fill:none;stroke:#000000;stroke-width:15;stroke-linecap:round;stroke-linejoin:round;stroke-miterlimit:10;stroke-dasharray:none;stroke-opacity:1"
             id="path499" /></g><g
           id="g501"
           transform="translate(341.5347,325.0483)"><path
             d="M 0,0 38.43,-38.431"
             style="fill:none;stroke:#000000;stroke-width:15;stroke-linecap:round;stroke-linejoin:round;stroke-miterlimit:10;stroke-dasharray:none;stroke-opacity:1"
             id="path503" /></g><g
           id="g505"
           transform="translate(197.5049,51.0537)"><path
             d="m 0,0 c 3.013,-0.879 6.192,-1.37 9.489,-1.37 h 263.679 c 18.682,0 33.827,15.145 33.827,33.828 v 70.027 c 0,18.682 -15.145,33.827 -33.827,33.827 H 139.032"
             style="fill:none;stroke:#000000;stroke-width:15;stroke-linecap:round;stroke-linejoin:round;stroke-miterlimit:10;stroke-dasharray:none;stroke-opacity:1"
             id="path507" /></g><g
           id="g509"
           transform="translate(296.9307,325.0479)"><path
             d="m 0,0 h 173.742 c 18.682,0 33.827,15.145 33.827,33.827 v 70.028 c 0,18.682 -15.145,33.828 -33.827,33.828 H -89.937 c -18.682,0 -33.827,-15.146 -33.827,-33.828 v -48.3"
             style="fill:none;stroke:#000000;stroke-width:15;stroke-linecap:round;stroke-linejoin:round;stroke-miterlimit:10;stroke-dasharray:none;stroke-opacity:1"
             id="path511" /></g><g
           id="g513"
           transform="translate(336.5366,187.3662)"><path
             d="m 0,0 h 134.136 c 18.682,0 33.827,15.145 33.827,33.827 v 70.028 c 0,18.682 -15.145,33.827 -33.827,33.827 H -39.606"
             style="fill:none;stroke:#000000;stroke-width:15;stroke-linecap:round;stroke-linejoin:round;stroke-miterlimit:10;stroke-dasharray:none;stroke-opacity:1"
             id="path515" /></g></g></g></g></svg>
