<!DOCTYPE svg PUBLIC "-//W3C//DTD SVG 1.1//EN" "http://www.w3.org/Graphics/SVG/1.1/DTD/svg11.dtd">
<!-- Uploaded to: SVG Repo, www.svgrepo.com, Transformed by: SVG Repo Mixer Tools -->
<svg version="1.1" id="Layer_1" xmlns="http://www.w3.org/2000/svg" xmlns:xlink="http://www.w3.org/1999/xlink" viewBox="0 0 512 512" xml:space="preserve" width="800px" height="800px" fill="#000000">
<g id="SVGRepo_bgCarrier" stroke-width="0"/>
<g id="SVGRepo_tracerCarrier" stroke-linecap="round" stroke-linejoin="round"/>
<g id="SVGRepo_iconCarrier"> <path style="fill:#00C2F2;" d="M102.33,359.325c-33.525,11.225-57.692,42.862-57.692,80.164v51.492 c0,7.144,5.792,12.935,12.935,12.935h44.757V359.325z"/> <path style="fill:#00C2F2;" d="M74.753,490.981V439.49c0-28.399,14.018-53.503,35.498-68.828v-11.337 c-33.525,11.225-57.693,42.862-57.693,80.164v51.492c0,7.144,5.792,12.935,12.935,12.935h22.195 C80.544,503.916,74.753,498.125,74.753,490.981z"/> <path style="fill:#80E0A7;" d="M255.972,365.971c24.139,0,40.625-19.113,43.695-22.953l0.526-0.676V323.57 c-7.568,1.832-15.472,2.81-23.602,2.81h-3.821h-0.002H239.23l0,0h-3.823c-8.133,0-16.034-0.978-23.601-2.809v18.772l0.572,0.738 C215.557,347.054,231.951,365.971,255.972,365.971z"/> <path style="fill:#80E0A7;" d="M240.338,387.903l-0.572-2.071v-33.308v-19.357v-25.456c-7.638-0.296-15.065-3.009-22.195-7.852 v52.665l0.572,2.071c2.615,9.169,14.174,46.708,31.566,59.737C244.808,402.906,241.573,392.236,240.338,387.903z"/> <path style="fill:#7C7A75;" d="M333.846,46.667V21.019c0-7.143-5.792-12.935-12.935-12.935H187.657 c-7.143,0-12.935,5.792-12.935,12.935v25.649"/> <path style="fill:#6B6861;" d="M202.68,44.946V21.019c0-7.143,5.792-12.935,12.935-12.935H193.42 c-7.143,0-12.935,5.792-12.935,12.935v23.927v1.721v23.927h22.195V46.667V44.946z"/> <path style="fill:#CCC3A8;" d="M283.124,46.667h-64.859h-56.956c-14.293,0-25.876,11.587-25.876,25.876v44.23v5.389v28.75v5.389 v64.717v5.389c0,55.213,44.76,99.973,99.973,99.973h41.185c55.213,0,99.973-44.76,99.973-99.973v-5.389v-64.717v-5.389v-28.75 v-5.389v-44.23c0-14.289-11.583-25.876-25.874-25.876h-38.464"/> <path style="fill:#666666;" d="M163.392,226.409v-5.389v-64.717v-5.389v-28.75v-5.389v-44.23c0-14.289,11.583-25.876,25.876-25.876 h-22.195c-14.293,0-25.876,11.587-25.876,25.876v44.23v5.389v28.75v5.389v64.717v5.389c0,55.213,44.76,99.973,99.973,99.973h22.195 C208.152,326.381,163.392,281.622,163.392,226.409z"/> <path style="fill:#36A1CB;" d="M171.665,102.225v71.408c0,13.363,36.989,24.196,82.618,24.196s82.621-10.833,82.621-24.196v-71.408 H171.665z"/> <path style="fill:#2B80AF;" d="M199.084,186.471v-84.785h-16.805c-2.977,0-5.389,2.412-5.389,5.389v66.558 c0,6.763,8.701,12.808,23.009,17.229C199.367,189.424,199.084,187.959,199.084,186.471z"/> <g style="opacity:0.15;"> <path style="fill:#F5F5F5;" d="M392.875,103.669h-14.72h-1.785V73.987c0-14.289-11.583-25.876-25.874-25.876h-16.844v-1.721V22.462 c0-7.143-5.792-12.935-12.935-12.935h-63.763c-11.683,24.263-18.23,51.465-18.23,80.196c0,83.007,54.644,153.249,129.92,176.721 c4.974-11.875,7.726-24.912,7.726-38.594v-5.389V175.19h1.785h14.72c7.145,0,12.935-5.792,12.935-12.935v-45.653 C405.81,109.46,400.02,103.669,392.875,103.669z"/> </g> <path style="fill:#00C2F2;" d="M333.997,503.916h28.798V355.278c0-0.112,0.015-0.221,0.017-0.333l-62.619-12.602l-0.526,0.676 c-3.07,3.841-19.556,22.953-43.695,22.953c-24.021,0-40.415-18.918-43.593-22.89l-0.572-0.738l-62.675,12.602 c0.004,0.112,0.017,0.221,0.017,0.333v148.637h155.747"/> <path style="fill:#80E0A7;" d="M332.775,348.901l-32.582-6.557l-0.526,0.676c-3.07,3.841-19.556,22.953-43.695,22.953 c-24.021,0-40.415-18.918-43.593-22.89l-0.572-0.738l-32.585,6.551c13.436,28.96,42.751,49.055,76.778,49.055 C290.022,397.949,319.337,377.857,332.775,348.901z"/> <path style="fill:#00C2F2;" d="M409.612,359.308v144.608h44.812c7.143,0,12.935-5.79,12.935-12.935V439.49 C467.359,402.168,443.164,370.517,409.612,359.308z"/> <g> <path style="fill:#666666;" d="M409.612,503.916V355.278c0-7.143-5.789-12.935-12.935-12.935H375.73 c-7.143,0-12.935,5.792-12.935,12.935v148.637H409.612z"/> <path style="fill:#666666;" d="M149.147,503.916V355.278c0-7.143-5.789-12.935-12.935-12.935h-20.948 c-7.143,0-12.935,5.792-12.935,12.935v148.637H149.147z"/> </g> <g> <rect x="102.334" y="409.923" style="fill:#666666;" width="46.813" height="93.992"/> <rect x="362.796" y="409.923" style="fill:#666666;" width="46.813" height="93.992"/> </g> <polyline style="fill:#666666;" points="149.175,503.916 149.175,469.405 362.823,469.405 362.823,503.916 "/> <g> <path style="fill:#7C7A75;" d="M393.069,102.225h-16.506v71.523h16.506c7.145,0,12.935-5.792,12.935-12.935V115.16 C406.004,108.017,400.214,102.225,393.069,102.225z"/> <path style="fill:#7C7A75;" d="M118.928,102.225h16.506v71.523h-16.506c-7.145,0-12.935-5.792-12.935-12.935V115.16 C105.993,108.017,111.783,102.225,118.928,102.225z"/> </g> <path style="fill:#666666;" d="M142.6,342.375c-0.207-0.01-0.413-0.031-0.623-0.031h-20.948c-7.143,0-12.935,5.792-12.935,12.935 v148.637h22.195V355.278C130.289,348.345,135.748,342.703,142.6,342.375z"/> <rect x="108.09" y="409.923" style="fill:#666666;" width="22.195" height="93.992"/> <g> <path style="fill:#231F20;" d="M417.615,353.666c-0.829-10.837-9.892-19.408-20.937-19.408H375.73 c-8.08,0-15.099,4.59-18.616,11.293l-22.744-4.577c0,0-0.001,0-0.002,0l-26.092-5.252v-6.002 c44.17-13.574,76.371-54.752,76.371-103.313v-44.576h8.422c11.59,0,21.019-9.429,21.019-21.019V115.16 c0-11.59-9.429-21.019-21.019-21.019h-8.422V72.543c0-18.725-15.234-33.96-33.958-33.96h-8.76V21.019 C341.929,9.429,332.5,0,320.91,0H187.657c-11.59,0-21.019,9.429-21.019,21.019v17.564h-5.328c-18.725,0-33.96,15.235-33.96,33.96 v21.598h-8.422c-11.59,0-21.019,9.429-21.019,21.019v45.653c0,11.59,9.429,21.019,21.019,21.019h8.422v44.576 c0,48.562,32.202,89.74,76.373,103.314v6.001l-26.095,5.246c-0.001,0-0.002,0-0.003,0.001l-22.794,4.583 c-3.516-6.705-10.535-11.295-18.616-11.295h-20.948c-11.053,0-20.12,8.582-20.938,19.429 c-34.78,14.103-57.773,47.874-57.773,85.802v51.492c0,11.59,9.429,21.019,21.019,21.019h44.757h46.817h155.747 c4.466,0,8.084-3.618,8.084-8.084s-3.618-8.084-8.084-8.084H157.259v-18.343h197.453v18.343h-20.714 c-4.466,0-8.084,3.618-8.084,8.084s3.618,8.084,8.084,8.084h28.798h46.817h44.812c11.59,0,21.019-9.429,21.019-21.019v-51.492 C475.444,401.534,452.428,367.755,417.615,353.666z M375.73,350.428h20.948c2.674,0,4.851,2.176,4.851,4.851v4.029v42.526h-30.649 V355.49c0.006-0.117,0.011-0.234,0.014-0.351C370.969,352.53,373.103,350.428,375.73,350.428z M401.528,495.832h-30.621v-26.427 c0-0.183-0.015-0.362-0.027-0.542v-50.86h30.649v77.829H401.528z M208.72,351.209c0.009,0.01,0.019,0.021,0.028,0.03 c0.068,0.074,0.143,0.154,0.213,0.23c0.168,0.181,0.338,0.364,0.518,0.555c0.102,0.109,0.209,0.22,0.315,0.331 c0.163,0.169,0.328,0.341,0.498,0.516c0.115,0.119,0.234,0.238,0.354,0.36c0.177,0.179,0.357,0.36,0.542,0.543 c0.124,0.123,0.247,0.245,0.374,0.37c0.204,0.199,0.414,0.402,0.627,0.607c0.117,0.113,0.233,0.224,0.354,0.34 c0.326,0.308,0.661,0.622,1.007,0.939c0.039,0.036,0.079,0.071,0.117,0.107c0.33,0.302,0.67,0.607,1.019,0.914 c0.136,0.12,0.277,0.24,0.416,0.361c0.251,0.219,0.504,0.438,0.764,0.658c0.163,0.138,0.328,0.276,0.494,0.414 c0.252,0.21,0.508,0.421,0.767,0.633c0.172,0.14,0.346,0.28,0.522,0.421c0.272,0.217,0.549,0.434,0.828,0.651 c0.171,0.134,0.342,0.267,0.516,0.401c0.33,0.252,0.667,0.504,1.008,0.756c0.133,0.098,0.26,0.196,0.395,0.293 c0.472,0.345,0.954,0.688,1.447,1.029c0.138,0.096,0.28,0.19,0.419,0.286c0.364,0.249,0.731,0.497,1.105,0.744 c0.195,0.128,0.393,0.255,0.592,0.383c0.331,0.213,0.663,0.425,1.002,0.636c0.216,0.134,0.433,0.267,0.651,0.4 c0.336,0.204,0.678,0.406,1.022,0.608c0.221,0.129,0.441,0.258,0.665,0.386c0.374,0.213,0.755,0.421,1.137,0.63 c0.198,0.108,0.393,0.218,0.594,0.324c0.568,0.302,1.145,0.599,1.731,0.889c0.046,0.023,0.093,0.045,0.139,0.068 c0.573,0.281,1.157,0.556,1.747,0.825c0.208,0.095,0.42,0.184,0.631,0.278c0.421,0.186,0.844,0.37,1.274,0.549 c0.246,0.102,0.495,0.202,0.744,0.301c0.409,0.164,0.819,0.323,1.234,0.479c0.258,0.097,0.516,0.192,0.776,0.286 c0.428,0.154,0.861,0.302,1.297,0.447c0.249,0.083,0.496,0.168,0.747,0.247c0.513,0.164,1.033,0.318,1.554,0.468 c0.178,0.052,0.352,0.107,0.53,0.156c0.701,0.194,1.411,0.377,2.129,0.546c0.178,0.042,0.359,0.078,0.538,0.118 c0.545,0.123,1.094,0.241,1.65,0.348c0.264,0.051,0.53,0.096,0.797,0.143c0.482,0.086,0.966,0.167,1.455,0.241 c0.29,0.043,0.581,0.084,0.873,0.123c0.482,0.065,0.967,0.122,1.455,0.174c0.292,0.031,0.583,0.063,0.877,0.088 c0.527,0.047,1.06,0.083,1.594,0.114c0.255,0.015,0.509,0.036,0.766,0.046c0.793,0.036,1.592,0.058,2.4,0.058 c0.809,0,1.609-0.023,2.404-0.058c0.255-0.012,0.508-0.031,0.761-0.046c0.538-0.032,1.075-0.068,1.605-0.115 c0.29-0.026,0.578-0.057,0.867-0.087c0.495-0.053,0.986-0.11,1.475-0.176c0.287-0.039,0.572-0.078,0.857-0.121 c0.5-0.075,0.995-0.158,1.489-0.247c0.255-0.045,0.512-0.088,0.765-0.137c0.599-0.115,1.192-0.243,1.781-0.377 c0.135-0.03,0.272-0.057,0.406-0.088c0.723-0.17,1.437-0.355,2.142-0.55c0.19-0.053,0.375-0.111,0.564-0.165 c0.514-0.148,1.025-0.3,1.53-0.46c0.246-0.078,0.487-0.16,0.731-0.241c0.445-0.148,0.887-0.3,1.324-0.457 c0.25-0.089,0.498-0.18,0.745-0.273c0.434-0.163,0.864-0.33,1.291-0.501c0.229-0.092,0.458-0.182,0.684-0.276 c0.475-0.197,0.944-0.401,1.41-0.607c0.166-0.073,0.334-0.144,0.499-0.219c0.628-0.285,1.247-0.578,1.857-0.877 c0.094-0.046,0.185-0.095,0.279-0.142c0.512-0.255,1.019-0.515,1.517-0.779c0.192-0.102,0.379-0.206,0.569-0.309 c0.397-0.216,0.79-0.432,1.177-0.653c0.205-0.116,0.409-0.235,0.611-0.352c0.372-0.217,0.738-0.435,1.102-0.656 c0.192-0.116,0.384-0.233,0.573-0.35c0.385-0.238,0.762-0.48,1.136-0.721c0.154-0.1,0.312-0.198,0.463-0.299 c1.048-0.689,2.054-1.388,3.019-2.093c0.136-0.099,0.266-0.198,0.401-0.297c0.344-0.254,0.683-0.509,1.016-0.763 c0.157-0.121,0.312-0.24,0.466-0.36c0.304-0.236,0.604-0.472,0.899-0.708c0.152-0.122,0.303-0.243,0.453-0.364 c0.301-0.245,0.595-0.488,0.886-0.731c0.126-0.106,0.253-0.21,0.377-0.315c0.356-0.301,0.702-0.599,1.04-0.897 c0.05-0.043,0.1-0.086,0.15-0.129c0.393-0.347,0.775-0.69,1.145-1.028c0.075-0.069,0.146-0.136,0.22-0.204 c0.286-0.264,0.567-0.525,0.839-0.783c0.108-0.102,0.212-0.203,0.318-0.304c0.234-0.224,0.463-0.446,0.686-0.665 c0.103-0.101,0.205-0.202,0.305-0.302c0.222-0.221,0.438-0.437,0.648-0.65c0.084-0.086,0.169-0.171,0.252-0.257 c0.237-0.244,0.466-0.481,0.687-0.714c0.045-0.047,0.093-0.097,0.137-0.143c0.023-0.024,0.046-0.048,0.069-0.072 c0.235-0.248,0.459-0.49,0.675-0.724l17.131,3.447c-13.953,21.672-38.237,35.209-64.399,35.209 c-26.166,0-50.451-13.538-64.403-35.213L208.72,351.209z M393.069,110.31c2.674,0,4.851,2.176,4.851,4.851v45.653 c0,2.674-2.176,4.851-4.851,4.851h-8.422V110.31H393.069z M118.928,165.663c-2.674,0-4.851-2.176-4.851-4.851v-45.653 c0-2.674,2.176-4.851,4.851-4.851h8.422v55.354H118.928z M143.517,226.409v-52.661v-71.523V72.543 c0-9.811,7.981-17.792,17.792-17.792h121.815c4.466,0,8.084-3.618,8.084-8.084s-3.618-8.084-8.084-8.084H182.806V21.019 c0-2.674,2.176-4.851,4.851-4.851h133.255c2.674,0,4.851,2.176,4.851,4.851v17.564h-13.535c-4.466,0-8.084,3.618-8.084,8.084 s3.618,8.084,8.084,8.084h38.464c9.81,0,17.79,7.981,17.79,17.792v29.682v71.523v52.661c0,44.287-31.495,81.355-73.263,89.988 c-0.14,0.029-0.28,0.054-0.421,0.082c-1.285,0.259-2.581,0.49-3.884,0.695c-0.161,0.025-0.321,0.055-0.482,0.08 c-1.312,0.199-2.635,0.362-3.965,0.506c-0.303,0.032-0.605,0.065-0.908,0.095c-1.314,0.128-2.634,0.231-3.963,0.303 c-0.25,0.013-0.5,0.022-0.749,0.033c-1.411,0.065-2.827,0.108-4.253,0.108h-41.185c-1.428,0-2.846-0.043-4.259-0.108 c-0.247-0.012-0.494-0.019-0.742-0.033c-1.334-0.072-2.661-0.175-3.981-0.304c-0.292-0.028-0.584-0.06-0.876-0.091 c-1.34-0.143-2.674-0.308-3.997-0.51c-0.143-0.022-0.286-0.047-0.428-0.07c-1.33-0.209-2.653-0.444-3.963-0.709 c-0.121-0.024-0.241-0.045-0.361-0.07C175.022,307.776,143.517,270.702,143.517,226.409z M223.393,333.794 c0.172,0.019,0.344,0.041,0.516,0.059c1.184,0.126,2.372,0.233,3.568,0.32c0.178,0.013,0.357,0.022,0.535,0.033 c0.995,0.068,1.994,0.121,2.995,0.161c0.298,0.012,0.594,0.025,0.891,0.033c1.165,0.038,2.333,0.063,3.506,0.063h41.185 c1.175,0,2.344-0.026,3.512-0.064c0.292-0.01,0.585-0.022,0.877-0.033c1.019-0.041,2.035-0.095,3.046-0.164 c0.16-0.011,0.319-0.019,0.478-0.03c1.209-0.088,2.413-0.196,3.612-0.324c0.143-0.015,0.286-0.033,0.428-0.05 c1.076-0.119,2.146-0.254,3.211-0.404c0.117-0.016,0.236-0.028,0.354-0.044v6.101c-0.071,0.082-0.142,0.163-0.218,0.249 c-0.037,0.042-0.072,0.083-0.111,0.125c-0.134,0.15-0.275,0.306-0.42,0.467c-0.039,0.043-0.075,0.084-0.115,0.127 c-0.167,0.182-0.344,0.372-0.526,0.567c-0.022,0.023-0.041,0.044-0.063,0.067c-0.418,0.444-0.876,0.916-1.372,1.411 c-0.041,0.04-0.084,0.082-0.125,0.123c-0.203,0.202-0.411,0.404-0.626,0.612c-0.073,0.07-0.149,0.142-0.223,0.213 c-0.191,0.182-0.384,0.365-0.584,0.551c-0.091,0.085-0.184,0.17-0.277,0.255c-0.191,0.176-0.385,0.351-0.583,0.529 c-0.105,0.094-0.21,0.188-0.317,0.282c-0.198,0.176-0.401,0.352-0.607,0.529c-0.11,0.095-0.22,0.19-0.333,0.286 c-0.213,0.182-0.433,0.364-0.654,0.548c-0.111,0.092-0.221,0.184-0.334,0.276c-0.243,0.197-0.492,0.396-0.743,0.595 c-0.097,0.077-0.192,0.153-0.29,0.231c-0.338,0.264-0.684,0.528-1.038,0.792c-0.015,0.011-0.028,0.022-0.043,0.032 c-0.374,0.278-0.757,0.556-1.147,0.832c-0.085,0.06-0.174,0.12-0.26,0.18c-0.301,0.21-0.605,0.42-0.914,0.628 c-0.134,0.089-0.271,0.178-0.405,0.266c-0.269,0.177-0.539,0.354-0.815,0.528c-0.157,0.099-0.317,0.197-0.475,0.296 c-0.262,0.162-0.526,0.323-0.793,0.483c-0.17,0.101-0.342,0.202-0.514,0.301c-0.267,0.155-0.537,0.308-0.81,0.46 c-0.176,0.098-0.352,0.195-0.53,0.292c-0.278,0.15-0.559,0.297-0.842,0.444c-0.179,0.093-0.357,0.185-0.538,0.276 c-0.301,0.151-0.606,0.296-0.912,0.443c-0.168,0.08-0.335,0.162-0.506,0.24c-0.359,0.165-0.723,0.326-1.09,0.483 c-0.123,0.053-0.244,0.109-0.368,0.161c-0.494,0.208-0.995,0.409-1.503,0.6c-0.093,0.036-0.189,0.067-0.282,0.101 c-0.414,0.153-0.83,0.303-1.253,0.445c-0.179,0.06-0.362,0.115-0.543,0.174c-0.342,0.11-0.684,0.219-1.03,0.32 c-0.209,0.061-0.421,0.119-0.633,0.177c-0.327,0.091-0.653,0.179-0.985,0.261c-0.224,0.056-0.449,0.109-0.676,0.161 c-0.324,0.075-0.651,0.147-0.981,0.215c-0.233,0.047-0.467,0.094-0.703,0.138c-0.332,0.063-0.667,0.119-1.004,0.172 c-0.235,0.038-0.469,0.075-0.706,0.109c-0.349,0.05-0.703,0.091-1.056,0.132c-0.229,0.026-0.456,0.054-0.686,0.077 c-0.39,0.037-0.785,0.064-1.18,0.088c-0.197,0.013-0.393,0.03-0.592,0.04c-0.596,0.028-1.196,0.045-1.803,0.045 c-0.605,0-1.203-0.016-1.797-0.045c-0.195-0.01-0.388-0.027-0.582-0.039c-0.396-0.025-0.79-0.051-1.18-0.088 c-0.23-0.022-0.456-0.051-0.683-0.077c-0.253-0.028-0.506-0.059-0.756-0.093c-0.097-0.013-0.196-0.023-0.293-0.037 c-0.237-0.033-0.472-0.071-0.707-0.109c-0.332-0.053-0.663-0.109-0.991-0.169c-0.238-0.044-0.474-0.092-0.71-0.14 c-0.321-0.066-0.641-0.136-0.959-0.209c-0.232-0.054-0.462-0.108-0.692-0.165c-0.319-0.08-0.635-0.164-0.95-0.251 c-0.221-0.06-0.443-0.121-0.662-0.185c-0.323-0.095-0.642-0.195-0.96-0.298c-0.203-0.065-0.407-0.127-0.608-0.195 c-0.346-0.116-0.687-0.239-1.027-0.363c-0.167-0.06-0.337-0.119-0.503-0.181c-0.421-0.16-0.835-0.326-1.247-0.496 c-0.078-0.032-0.157-0.061-0.235-0.094c-0.012-0.005-0.024-0.011-0.036-0.015c-0.48-0.202-0.953-0.411-1.42-0.626 c-0.156-0.072-0.308-0.148-0.463-0.221c-0.318-0.151-0.635-0.302-0.947-0.457c-0.181-0.091-0.358-0.184-0.537-0.276 c-0.279-0.144-0.557-0.288-0.831-0.435c-0.186-0.101-0.371-0.204-0.555-0.306c-0.26-0.144-0.518-0.29-0.773-0.438 c-0.183-0.106-0.364-0.213-0.545-0.32c-0.25-0.149-0.498-0.299-0.743-0.449c-0.177-0.109-0.352-0.218-0.526-0.328 c-0.244-0.154-0.484-0.309-0.722-0.466c-0.167-0.109-0.334-0.218-0.498-0.328c-0.245-0.164-0.484-0.329-0.723-0.495 c-0.148-0.102-0.299-0.205-0.444-0.308c-0.263-0.186-0.521-0.373-0.776-0.561c-0.114-0.084-0.233-0.168-0.346-0.251 c-0.733-0.545-1.435-1.092-2.103-1.636c-0.109-0.088-0.213-0.177-0.321-0.265c-0.222-0.183-0.444-0.366-0.659-0.549 c-0.121-0.102-0.236-0.203-0.354-0.304c-0.196-0.169-0.391-0.337-0.581-0.504c-0.117-0.103-0.231-0.206-0.345-0.308 c-0.181-0.162-0.36-0.323-0.535-0.484c-0.112-0.102-0.223-0.205-0.332-0.307c-0.169-0.157-0.336-0.314-0.499-0.469 c-0.103-0.099-0.207-0.197-0.308-0.294c-0.163-0.157-0.322-0.312-0.477-0.466c-0.091-0.089-0.183-0.179-0.272-0.267 c-0.162-0.161-0.317-0.318-0.47-0.473c-0.075-0.077-0.152-0.154-0.225-0.229c-0.172-0.178-0.338-0.35-0.5-0.521 c-0.045-0.047-0.093-0.097-0.137-0.143c-0.415-0.44-0.792-0.852-1.129-1.229c-0.031-0.036-0.059-0.068-0.091-0.102 c-0.11-0.124-0.216-0.245-0.317-0.36v-6.107c0.135,0.019,0.269,0.032,0.404,0.051C221.322,333.548,222.355,333.678,223.393,333.794 z M110.415,355.278c0-2.674,2.176-4.851,4.851-4.851h20.948c2.638,0,4.78,2.119,4.84,4.743c0.001,0.027-0.002,0.054-0.001,0.081 c0.003,0.074,0.008,0.149,0.012,0.226v46.357h-30.649v-42.509C110.415,359.326,110.415,355.278,110.415,355.278z M52.721,490.981 v-51.492c0-29.01,16.291-55.086,41.524-68.018v38.446v85.915H57.572C54.898,495.832,52.721,493.655,52.721,490.981z M110.415,418.002h30.649v77.829h-30.649C110.415,495.832,110.415,418.002,110.415,418.002z M157.231,461.321v-51.403v-48.355 l17.569-3.532c16.2,29.359,47.4,48.004,81.2,48.004c33.794,0,64.994-18.643,81.195-47.998l17.517,3.526v48.357v51.403h-197.48 V461.321z M459.275,490.981c0,2.674-2.176,4.851-4.851,4.851h-36.728v-85.914v-38.474c25.266,12.922,41.579,39.009,41.579,68.046 V490.981z"/> <path style="fill:#231F20;" d="M344.989,173.634v-71.408c0-4.466-3.618-8.084-8.084-8.084h-165.24 c-4.466,0-8.084,3.618-8.084,8.084v71.408c0,25.481,57.015,32.28,90.703,32.28C287.973,205.913,344.989,199.115,344.989,173.634z M179.749,173.516V110.31h149.072v63.207c-0.527,1.383-5.315,5.984-20.789,10.142c-14.607,3.926-33.694,6.087-53.747,6.087 c-20.053,0-39.142-2.162-53.747-6.087C185.062,179.499,180.275,174.899,179.749,173.516z"/> <path style="fill:#231F20;" d="M204.17,227.103c-4.466,0-8.084,3.618-8.084,8.084v34.493c0,4.466,3.618,8.084,8.084,8.084 s8.084-3.618,8.084-8.084v-34.493C212.254,230.722,208.636,227.103,204.17,227.103z"/> <path style="fill:#231F20;" d="M307.827,227.103c-4.466,0-8.084,3.618-8.084,8.084v34.493c0,4.466,3.618,8.084,8.084,8.084 s8.084-3.618,8.084-8.084v-34.493C315.911,230.722,312.293,227.103,307.827,227.103z"/> <path style="fill:#231F20;" d="M273.275,227.103c-4.466,0-8.084,3.618-8.084,8.084v34.493c0,4.466,3.618,8.084,8.084,8.084 c4.466,0,8.084-3.618,8.084-8.084v-34.493C281.359,230.722,277.741,227.103,273.275,227.103z"/> <path style="fill:#231F20;" d="M238.724,227.103c-4.466,0-8.084,3.618-8.084,8.084v34.493c0,4.466,3.618,8.084,8.084,8.084 s8.084-3.618,8.084-8.084v-34.493C246.808,230.722,243.189,227.103,238.724,227.103z"/> </g> </g>
</svg>