<?xml version="1.0" encoding="UTF-8" standalone="no"?>
<!-- Created with Inkscape (http://www.inkscape.org/) -->

<svg
   version="1.1"
   id="svg4365"
   xml:space="preserve"
   width="682.66669"
   height="682.66669"
   viewBox="0 0 682.66669 682.66669"
   xmlns="http://www.w3.org/2000/svg"
   xmlns:svg="http://www.w3.org/2000/svg"><defs
     id="defs4369"><clipPath
       clipPathUnits="userSpaceOnUse"
       id="clipPath4379"><path
         d="M 0,512 H 512 V 0 H 0 Z"
         id="path4377" /></clipPath></defs><g
     id="g4371"
     transform="matrix(1.3333333,0,0,-1.3333333,0,682.66667)"><g
       id="g4373"><g
         id="g4375"
         clip-path="url(#clipPath4379)"><g
           id="g4381"
           transform="translate(504.5,90.0518)"><path
             d="M 0,0 H -259.519 C -265.308,0 -270,4.692 -270,10.481 V 25.52 c 0,5.788 4.692,10.48 10.481,10.48 H 0 Z"
             style="fill:#d2d5d4;fill-opacity:1;fill-rule:nonzero;stroke:none"
             id="path4383" /></g><path
           d="m 474.5,90.052 h 30 v 36 h -30 z"
           style="fill:#c7c9c8;fill-opacity:1;fill-rule:nonzero;stroke:none"
           id="path4385" /><g
           id="g4387"
           transform="translate(402.1738,267.8667)"><path
             d="m 0,0 -350.402,-111.683 -23.289,73.068 54.627,24.355 175.673,55.991 102.319,20.327 c 11.405,2.265 22.694,-4.395 26.225,-15.475 z"
             style="fill:#ffde5c;fill-opacity:1;fill-rule:nonzero;stroke:none"
             id="path4389" /></g><g
           id="g4391"
           transform="translate(179.5728,196.9175)"><path
             d="m 0,0 -28.583,-9.11 -25.298,79.371 28.583,9.11 z"
             style="fill:#ffc736;fill-opacity:1;fill-rule:nonzero;stroke:none"
             id="path4393" /></g><g
           id="g4395"
           transform="translate(361.1016,329.9243)"><path
             d="m 0,0 -102.319,-20.326 -28.583,-9.111 102.319,20.327 c 11.405,2.265 22.693,-4.395 26.225,-15.474 l 14.847,-46.584 28.583,9.11 -14.847,46.583 C 22.694,-4.395 11.405,2.266 0,0"
             style="fill:#ffc736;fill-opacity:1;fill-rule:nonzero;stroke:none"
             id="path4397" /></g><g
           id="g4399"
           transform="translate(413.2266,239.9023)"><path
             d="m 0,0 -352.088,-112.22 c -7.893,-2.516 -16.331,1.843 -18.847,9.736 -2.516,7.893 1.843,16.331 9.736,18.847 L -9.11,28.583 C -1.217,31.099 7.221,26.74 9.736,18.847 12.252,10.954 7.893,2.516 0,0"
             style="fill:#d2d5d4;fill-opacity:1;fill-rule:nonzero;stroke:none"
             id="path4401" /></g><g
           id="g4403"
           transform="translate(404.1162,268.4858)"><path
             d="m 0,0 -28.583,-9.11 c 7.893,2.515 16.331,-1.844 18.846,-9.737 v 0 c 2.516,-7.893 -1.843,-16.331 -9.736,-18.847 l 28.583,9.111 c 7.893,2.515 12.252,10.953 9.737,18.846 C 16.331,-1.844 7.893,2.516 0,0"
             style="fill:#c7c9c8;fill-opacity:1;fill-rule:nonzero;stroke:none"
             id="path4405" /></g><g
           id="g4407"
           transform="translate(258.7827,309.5981)"><path
             d="m 0,0 -175.673,-55.992 9.615,64.57 120.361,38.363 z"
             style="fill:#b9f5ff;fill-opacity:1;fill-rule:nonzero;stroke:none"
             id="path4409" /></g><g
           id="g4411"
           transform="translate(213.0859,356.5391)"><path
             d="m 0,0 -28.583,-9.11 45.697,-46.941 28.583,9.11 z"
             style="fill:#8aeeff;fill-opacity:1;fill-rule:nonzero;stroke:none"
             id="path4413" /></g><g
           id="g4415"
           transform="translate(165.1904,160.8467)"><path
             d="m 0,0 c 7.547,-23.679 -5.53,-48.993 -29.209,-56.541 -23.68,-7.547 -48.994,5.531 -56.541,29.21 -7.547,23.679 5.53,48.993 29.209,56.54 C -32.861,36.756 -7.547,23.679 0,0"
             style="fill:#497285;fill-opacity:1;fill-rule:nonzero;stroke:none"
             id="path4417" /></g><g
           id="g4419"
           transform="translate(213.1226,356.5508)"><path
             d="m 0,0 -121.021,-38.573 c -2.206,-0.703 -4.564,0.515 -5.267,2.721 l -1.425,4.471 c -3.206,10.059 2.349,20.812 12.407,24.018 l 92.584,29.509 C -12.663,25.352 -1.91,19.796 1.296,9.738 L 2.721,5.267 C 3.424,3.061 2.206,0.703 0,0"
             style="fill:#ffde5c;fill-opacity:1;fill-rule:nonzero;stroke:none"
             id="path4421" /></g><g
           id="g4423"
           transform="translate(190.4009,378.6963)"><path
             d="m 0,0 -20.134,-6.417 c 10.059,3.206 12.363,-5.042 15.569,-15.101 l 1.424,-4.471 c 0.703,-2.206 -0.515,-4.564 -2.721,-5.267 l 28.584,9.11 c 2.206,0.704 3.424,3.062 2.721,5.268 l -1.425,4.47 C 20.812,-2.349 10.059,3.206 0,0"
             style="fill:#ffc736;fill-opacity:1;fill-rule:nonzero;stroke:none"
             id="path4425" /></g><g
           id="g4427"
           transform="translate(137.5601,152.04)"><path
             d="m 0,0 c 2.683,-8.419 -1.967,-17.42 -10.386,-20.104 -8.419,-2.683 -17.42,1.967 -20.103,10.386 -2.683,8.42 1.967,17.42 10.385,20.103 C -11.684,13.069 -2.684,8.419 0,0"
             style="fill:#d2d5d4;fill-opacity:1;fill-rule:nonzero;stroke:none"
             id="path4429" /></g><g
           id="g4431"
           transform="translate(389.0723,232.2041)"><path
             d="m 0,0 c 7.547,-23.679 -5.53,-48.993 -29.209,-56.541 -23.679,-7.547 -48.993,5.531 -56.541,29.21 -7.547,23.679 5.531,48.993 29.21,56.54 C -32.861,36.756 -7.547,23.679 0,0"
             style="fill:#497285;fill-opacity:1;fill-rule:nonzero;stroke:none"
             id="path4433" /></g><g
           id="g4435"
           transform="translate(361.4419,223.3975)"><path
             d="m 0,0 c 2.684,-8.419 -1.966,-17.42 -10.385,-20.104 -8.42,-2.683 -17.42,1.967 -20.104,10.386 -2.683,8.42 1.967,17.42 10.386,20.103 C -11.684,13.069 -2.683,8.419 0,0"
             style="fill:#d2d5d4;fill-opacity:1;fill-rule:nonzero;stroke:none"
             id="path4437" /></g><g
           id="g4439"
           transform="translate(44.356,202.501)"><path
             d="m 0,0 -6.669,-2.125 -17.988,56.433 c -0.8,2.509 0.587,5.192 3.096,5.992 l 23.307,7.429 c 2.509,0.799 5.192,-0.586 5.992,-3.096 L 17.525,33.924 C 22.054,19.717 14.208,4.528 0,0"
             style="fill:#497285;fill-opacity:1;fill-rule:nonzero;stroke:none"
             id="path4441" /></g><g
           id="g4443"
           transform="translate(182.8579,285.3989)"><path
             d="m 0,0 -28.583,-9.11 -17.796,55.833 28.584,9.11 z"
             style="fill:#ffde5c;fill-opacity:1;fill-rule:nonzero;stroke:none"
             id="path4445" /></g><g
           id="g4447"
           transform="translate(396.8813,81)"><path
             d="m 0,0 c 0,-24.853 -20.147,-45 -45,-45 -24.853,0 -45,20.147 -45,45 0,24.853 20.147,45 45,45 C -20.147,45 0,24.853 0,0"
             style="fill:#497285;fill-opacity:1;fill-rule:nonzero;stroke:none"
             id="path4449" /></g><g
           id="g4451"
           transform="translate(367.8813,81)"><path
             d="m 0,0 c 0,-8.836 -7.163,-16 -16,-16 -8.836,0 -16,7.164 -16,16 0,8.836 7.164,16 16,16 C -7.163,16 0,8.836 0,0"
             style="fill:#d2d5d4;fill-opacity:1;fill-rule:nonzero;stroke:none"
             id="path4453" /></g><g
           id="g4455"
           transform="translate(433.3149,202.5029)"><path
             d="m 0,0 c -5.632,0 -11.211,-0.861 -16.583,-2.56 l -392.998,-124.276 c -12.233,-3.869 -19.015,-16.923 -15.147,-29.157 l 0.246,-0.777 c 0.991,-3.134 4.335,-4.871 7.469,-3.88 L -7.539,-31.164 C -5.097,-30.392 -2.56,-30 0,-30 H 71.185 V 0 Z"
             style="fill:#ef483c;fill-opacity:1;fill-rule:nonzero;stroke:none"
             id="path4457" /></g><g
           id="g4459"
           transform="translate(395.7759,171.3394)"><path
             d="m 0,0 -387.768,-122.623 c 0.156,-0.737 0.348,-1.473 0.58,-2.207 l 0.245,-0.776 c 0.991,-3.134 4.335,-4.872 7.469,-3.88 L 30,0 c 2.442,0.772 4.979,1.164 7.539,1.164 h -30 C 4.979,1.164 2.442,0.772 0,0"
             style="fill:#de4135;fill-opacity:1;fill-rule:nonzero;stroke:none"
             id="path4461" /></g><path
           d="m 474.5,172.503 h 30 v 30 h -30 z"
           style="fill:#de4135;fill-opacity:1;fill-rule:nonzero;stroke:none"
           id="path4463" /><path
           d="m 504.5,126.052 h -69.262 v 46.451 H 504.5 Z"
           style="fill:#ffde5c;fill-opacity:1;fill-rule:nonzero;stroke:none"
           id="path4465" /><path
           d="m 474.5,126.052 h 30 v 46.451 h -30 z"
           style="fill:#ffc736;fill-opacity:1;fill-rule:nonzero;stroke:none"
           id="path4467" /><g
           id="g4469"
           transform="translate(471.9741,438.6001)"><path
             d="m 0,0 -41.42,-29.99 c -2.71,-1.96 -6.49,-0.03 -6.49,3.31 v 9.159 c 0,0.658 -0.533,1.191 -1.191,1.191 h -66.159 c -2.286,0 -4.14,1.853 -4.14,4.14 v 31 c 0,2.287 1.854,4.14 4.14,4.14 h 66.159 c 0.658,0 1.191,0.533 1.191,1.191 V 33.3 c 0,3.34 3.78,5.27 6.49,3.32 L 0,6.63 C 2.26,4.99 2.26,1.63 0,0"
             style="fill:#ffde5c;fill-opacity:1;fill-rule:nonzero;stroke:none"
             id="path4471" /></g><g
           id="g4473"
           transform="translate(234.5,110.8501)"><path
             d="M 0,0 V -10.32 C 0,-16.11 4.69,-20.8 10.48,-20.8 h 62.81"
             style="fill:none;stroke:#000000;stroke-width:15;stroke-linecap:round;stroke-linejoin:round;stroke-miterlimit:10;stroke-dasharray:none;stroke-opacity:1"
             id="path4475" /></g><g
           id="g4477"
           transform="translate(447.9229,90.0498)"><path
             d="M 0,0 H -51.953"
             style="fill:none;stroke:#000000;stroke-width:15;stroke-linecap:round;stroke-linejoin:round;stroke-miterlimit:10;stroke-dasharray:none;stroke-opacity:1"
             id="path4479" /></g><g
           id="g4481"
           transform="translate(282.5601,126.0498)"><path
             d="M 0,0 H 221.94 V -36 H 197.671"
             style="fill:none;stroke:#000000;stroke-width:15;stroke-linecap:round;stroke-linejoin:round;stroke-miterlimit:10;stroke-dasharray:none;stroke-opacity:1"
             id="path4483" /></g><g
           id="g4485"
           transform="translate(79.4399,133.5098)"><path
             d="m 0,0 -18.3,-5.83 c -7.89,-2.51 -16.33,1.85 -18.85,9.74 -0.48,1.51 -0.71,3.05 -0.71,4.56 0,6.26 3.96,12.09 10.19,14.2 0.08,0.03 0.17,0.06 0.26,0.09 l 29.23,9.31 v 0.01"
             style="fill:none;stroke:#000000;stroke-width:15;stroke-linecap:round;stroke-linejoin:round;stroke-miterlimit:10;stroke-dasharray:none;stroke-opacity:1"
             id="path4487" /></g><g
           id="g4489"
           transform="translate(145.1499,185.9502)"><path
             d="m 0,0 h 0.01 l 34.41,10.97 77.1,24.57 48.47,15.45"
             style="fill:none;stroke:#000000;stroke-width:15;stroke-linecap:round;stroke-linejoin:round;stroke-miterlimit:10;stroke-dasharray:none;stroke-opacity:1"
             id="path4491" /></g><g
           id="g4493"
           transform="translate(165.1899,160.8398)"><path
             d="M 0,0 V 0.01 L 138.13,44.03"
             style="fill:none;stroke:#000000;stroke-width:15;stroke-linecap:round;stroke-linejoin:round;stroke-miterlimit:10;stroke-dasharray:none;stroke-opacity:1"
             id="path4495" /></g><g
           id="g4497"
           transform="translate(369.0298,257.3101)"><path
             d="m 0,0 35.09,11.18 c 7.89,2.51 16.33,-1.85 18.84,-9.74 0.48,-1.52 0.71,-3.05 0.71,-4.56 0,-6.35 -4.07,-12.25 -10.44,-14.29 l -24.16,-7.7"
             style="fill:none;stroke:#000000;stroke-width:15;stroke-linecap:round;stroke-linejoin:round;stroke-miterlimit:10;stroke-dasharray:none;stroke-opacity:1"
             id="path4499" /></g><g
           id="g4501"
           transform="translate(305.1401,236.9399)"><path
             d="m 0,0 -48.47,-15.45 -77.1,-24.57 -34.41,-10.97 h -0.01"
             style="fill:none;stroke:#000000;stroke-width:15;stroke-linecap:round;stroke-linejoin:round;stroke-miterlimit:10;stroke-dasharray:none;stroke-opacity:1"
             id="path4503" /></g><g
           id="g4505"
           transform="translate(342.5,326.2261)"><path
             d="m 0,0 18.6,3.694 c 11.41,2.27 22.7,-4.39 26.23,-15.47 l 14.84,-46.58 -33.14,-10.56"
             style="fill:none;stroke:#000000;stroke-width:15;stroke-linecap:round;stroke-linejoin:round;stroke-miterlimit:10;stroke-dasharray:none;stroke-opacity:1"
             id="path4507" /></g><g
           id="g4509"
           transform="translate(59.73,243.1802)"><path
             d="m 0,0 23.38,10.43 71.16,22.68 104.51,33.31 51.72,10.271"
             style="fill:none;stroke:#000000;stroke-width:15;stroke-linecap:round;stroke-linejoin:round;stroke-miterlimit:10;stroke-dasharray:none;stroke-opacity:1"
             id="path4511" /></g><g
           id="g4513"
           transform="translate(28.4902,229.25)"><path
             d="m 0,0 h -0.01 l 23.29,-73.07 29.49,9.4"
             style="fill:none;stroke:#000000;stroke-width:15;stroke-linecap:round;stroke-linejoin:round;stroke-miterlimit:10;stroke-dasharray:none;stroke-opacity:1"
             id="path4515" /></g><g
           id="g4517"
           transform="translate(258.7827,309.5981)"><path
             d="m 0,0 -175.673,-55.992 9.615,64.57 120.361,38.363 z"
             style="fill:none;stroke:#000000;stroke-width:15;stroke-linecap:round;stroke-linejoin:round;stroke-miterlimit:10;stroke-dasharray:none;stroke-opacity:1"
             id="path4519" /></g><g
           id="g4521"
           transform="translate(156.1802,117.5498)"><path
             d="M 0,0 C 10.02,11.47 13.97,27.74 9.01,43.3 1.46,66.98 -23.85,80.05 -47.53,72.51 -71.21,64.96 -84.29,39.64 -76.74,15.97 -71.8,0.48 -59.26,-10.48 -44.55,-14.09"
             style="fill:none;stroke:#000000;stroke-width:15;stroke-linecap:round;stroke-linejoin:round;stroke-miterlimit:10;stroke-dasharray:none;stroke-opacity:1"
             id="path4523" /></g><g
           id="g4525"
           transform="translate(213.1226,356.5508)"><path
             d="m 0,0 -121.021,-38.573 c -2.206,-0.703 -4.564,0.515 -5.267,2.721 l -1.425,4.471 c -3.206,10.059 2.349,20.812 12.407,24.018 l 92.584,29.509 C -12.663,25.352 -1.91,19.796 1.296,9.738 L 2.721,5.267 C 3.424,3.061 2.206,0.703 0,0 Z"
             style="fill:none;stroke:#000000;stroke-width:15;stroke-linecap:round;stroke-linejoin:round;stroke-miterlimit:10;stroke-dasharray:none;stroke-opacity:1"
             id="path4527" /></g><g
           id="g4529"
           transform="translate(137.5601,152.04)"><path
             d="m 0,0 c 2.683,-8.419 -1.967,-17.42 -10.386,-20.104 -8.419,-2.683 -17.42,1.967 -20.103,10.386 -2.683,8.42 1.967,17.42 10.385,20.103 C -11.684,13.069 -2.684,8.419 0,0 Z"
             style="fill:none;stroke:#000000;stroke-width:15;stroke-linecap:round;stroke-linejoin:round;stroke-miterlimit:10;stroke-dasharray:none;stroke-opacity:1"
             id="path4531" /></g><g
           id="g4533"
           transform="translate(379.3799,188.1299)"><path
             d="M 0,0 C 10.52,11.5 14.76,28.15 9.69,44.07 2.15,67.75 -23.17,80.83 -46.85,73.28 -70.53,65.74 -83.6,40.42 -76.06,16.74 c 5.05,-15.86 18.07,-26.95 33.23,-30.28"
             style="fill:none;stroke:#000000;stroke-width:15;stroke-linecap:round;stroke-linejoin:round;stroke-miterlimit:10;stroke-dasharray:none;stroke-opacity:1"
             id="path4535" /></g><g
           id="g4537"
           transform="translate(361.4419,223.3975)"><path
             d="m 0,0 c 2.684,-8.419 -1.966,-17.42 -10.385,-20.104 -8.42,-2.683 -17.42,1.967 -20.104,10.386 -2.683,8.42 1.967,17.42 10.386,20.103 C -11.684,13.069 -2.683,8.419 0,0 Z"
             style="fill:none;stroke:#000000;stroke-width:15;stroke-linecap:round;stroke-linejoin:round;stroke-miterlimit:10;stroke-dasharray:none;stroke-opacity:1"
             id="path4539" /></g><g
           id="g4541"
           transform="translate(44.356,202.501)"><path
             d="m 0,0 -6.669,-2.125 -17.988,56.433 c -0.8,2.509 0.587,5.192 3.096,5.992 l 23.307,7.429 c 2.509,0.799 5.192,-0.586 5.992,-3.096 L 17.525,33.924 C 22.054,19.717 14.208,4.528 0,0 Z"
             style="fill:none;stroke:#000000;stroke-width:15;stroke-linecap:round;stroke-linejoin:round;stroke-miterlimit:10;stroke-dasharray:none;stroke-opacity:1"
             id="path4543" /></g><g
           id="g4545"
           transform="translate(154.2749,276.2886)"><path
             d="M 0,0 25.298,-79.371"
             style="fill:none;stroke:#000000;stroke-width:15;stroke-linecap:round;stroke-linejoin:round;stroke-miterlimit:10;stroke-dasharray:none;stroke-opacity:1"
             id="path4547" /></g><g
           id="g4549"
           transform="translate(195.896,252.5918)"><path
             d="M 0,0 14.072,4.485"
             style="fill:none;stroke:#000000;stroke-width:15;stroke-linecap:round;stroke-linejoin:round;stroke-miterlimit:10;stroke-dasharray:none;stroke-opacity:1"
             id="path4551" /></g><g
           id="g4553"
           transform="translate(182.8579,285.3989)"><path
             d="m 0,0 -28.583,-9.11 -17.796,55.833 28.584,9.11 z"
             style="fill:none;stroke:#000000;stroke-width:15;stroke-linecap:round;stroke-linejoin:round;stroke-miterlimit:10;stroke-dasharray:none;stroke-opacity:1"
             id="path4555" /></g><g
           id="g4557"
           transform="translate(396.8813,81)"><path
             d="m 0,0 c 0,-24.853 -20.147,-45 -45,-45 -24.853,0 -45,20.147 -45,45 0,24.853 20.147,45 45,45 C -20.147,45 0,24.853 0,0 Z"
             style="fill:none;stroke:#000000;stroke-width:15;stroke-linecap:round;stroke-linejoin:round;stroke-miterlimit:10;stroke-dasharray:none;stroke-opacity:1"
             id="path4559" /></g><g
           id="g4561"
           transform="translate(367.8813,81)"><path
             d="m 0,0 c 0,-8.836 -7.163,-16 -16,-16 -8.836,0 -16,7.164 -16,16 0,8.836 7.164,16 16,16 C -7.163,16 0,8.836 0,0 Z"
             style="fill:none;stroke:#000000;stroke-width:15;stroke-linecap:round;stroke-linejoin:round;stroke-miterlimit:10;stroke-dasharray:none;stroke-opacity:1"
             id="path4563" /></g><g
           id="g4565"
           transform="translate(91.1802,65.5313)"><path
             d="m 0,0 334.596,105.808 c 2.442,0.772 4.979,1.164 7.539,1.164 h 71.185 v 30 h -71.185 c -5.632,0 -11.211,-0.861 -16.583,-2.56 L -67.446,10.136 C -79.68,6.267 -86.461,-6.787 -82.593,-19.021 l 0.246,-0.777 c 0.991,-3.134 4.335,-4.871 7.469,-3.88 l 45.118,14.267"
             style="fill:none;stroke:#000000;stroke-width:15;stroke-linecap:round;stroke-linejoin:round;stroke-miterlimit:10;stroke-dasharray:none;stroke-opacity:1"
             id="path4567" /></g><path
           d="m 504.5,126.052 h -69.262 v 46.451 H 504.5 Z"
           style="fill:none;stroke:#000000;stroke-width:15;stroke-linecap:round;stroke-linejoin:round;stroke-miterlimit:10;stroke-dasharray:none;stroke-opacity:1"
           id="path4569" /><g
           id="g4571"
           transform="translate(471.9741,438.6001)"><path
             d="m 0,0 -41.42,-29.99 c -2.71,-1.96 -6.49,-0.03 -6.49,3.31 v 9.159 c 0,0.658 -0.533,1.191 -1.191,1.191 h -66.159 c -2.286,0 -4.14,1.853 -4.14,4.14 v 31 c 0,2.287 1.854,4.14 4.14,4.14 h 66.159 c 0.658,0 1.191,0.533 1.191,1.191 V 33.3 c 0,3.34 3.78,5.27 6.49,3.32 L 0,6.63 C 2.26,4.99 2.26,1.63 0,0 Z"
             style="fill:none;stroke:#000000;stroke-width:15;stroke-linecap:round;stroke-linejoin:round;stroke-miterlimit:10;stroke-dasharray:none;stroke-opacity:1"
             id="path4573" /></g></g></g></g></svg>
