<svg id="Layer_1" enable-background="new 0 0 491.5 491.5" height="300" viewBox="0 0 491.5 491.5" width="300" xmlns="http://www.w3.org/2000/svg" version="1.1" xmlns:xlink="http://www.w3.org/1999/xlink" xmlns:svgjs="http://svgjs.dev/svgjs"><g transform="matrix(1,0,0,1,0,0)"><g id="Layer_x0020_1"><g id="_464299792" clip-rule="evenodd" fill-rule="evenodd"><path id="_464301472" d="m339.2 418.2h-41.3c-2.6 0-4.7-2.1-4.7-4.7v-169.5c0-2.6 2.1-4.7 4.7-4.7h87.4c10.9 0 20.2 6.6 23.9 16.8l22.8 63.8c1.7 4.7 5.8 7.9 10.2 11.4 1 .8 2 1.5 2.9 2.3 6 5 9.2 11.7 9.2 19.6v31.9c0 2.6-2.1 4.7-4.7 4.7s-4.7-2.1-4.7-4.7v-31.9c0-5-1.9-9.1-5.8-12.3-.9-.7-1.8-1.5-2.8-2.2-5-3.9-10.7-8.4-13.2-15.6l-22.8-63.8c-2.3-6.5-8.1-10.5-15-10.5h-82.6v160.1h36.5c2.6 0 4.7 2.1 4.7 4.7 0 2.5-2.1 4.6-4.7 4.6z" fill="#000000" fill-opacity="1" data-original-color="#000000ff" stroke="none" stroke-opacity="1"/><path id="_464301424" d="m128.8 383.7c-16.4 0-29.8 13.4-29.8 29.8s13.4 29.8 29.8 29.8 29.8-13.4 29.8-29.8-13.4-29.8-29.8-29.8zm0 69.1c-21.7 0-39.3-17.6-39.3-39.3s17.6-39.3 39.3-39.3 39.3 17.6 39.3 39.3c-.1 21.6-17.7 39.3-39.3 39.3z" fill="#000000" fill-opacity="1" data-original-color="#000000ff" stroke="none" stroke-opacity="1"/><path id="_464301520" d="m128.8 404c-5.3 0-9.5 4.3-9.5 9.5 0 5.3 4.3 9.5 9.5 9.5 5.3 0 9.5-4.3 9.5-9.5 0-5.3-4.3-9.5-9.5-9.5zm0 28.5c-10.5 0-19-8.5-19-19s8.5-19 19-19 19 8.5 19 19-8.5 19-19 19z" fill="#000000" fill-opacity="1" data-original-color="#000000ff" stroke="none" stroke-opacity="1"/><path id="_464301256" d="m373.7 383.7c-16.4 0-29.8 13.4-29.8 29.8s13.4 29.8 29.8 29.8 29.8-13.4 29.8-29.8-13.3-29.8-29.8-29.8zm0 69.1c-21.7 0-39.3-17.6-39.3-39.3s17.6-39.3 39.3-39.3 39.3 17.6 39.3 39.3c0 21.6-17.6 39.3-39.3 39.3z" fill="#000000" fill-opacity="1" data-original-color="#000000ff" stroke="none" stroke-opacity="1"/><path id="_464301280" d="m373.7 404c-5.3 0-9.5 4.3-9.5 9.5 0 5.3 4.3 9.5 9.5 9.5 5.3 0 9.5-4.3 9.5-9.5.1-5.3-4.2-9.5-9.5-9.5zm0 28.5c-10.5 0-19-8.5-19-19s8.5-19 19-19 19 8.5 19 19c.1 10.5-8.5 19-19 19z" fill="#000000" fill-opacity="1" data-original-color="#000000ff" stroke="none" stroke-opacity="1"/><path id="_464301352" d="m340.5 360h-17.2c-2.6 0-4.7-2.1-4.7-4.7s2.1-4.7 4.7-4.7h17.2c2.6 0 4.7 2.1 4.7 4.7s-2.1 4.7-4.7 4.7z" fill="#000000" fill-opacity="1" data-original-color="#000000ff" stroke="none" stroke-opacity="1"/><path id="_464301040" d="m449.5 418.2h-41.3c-2.6 0-4.7-2.1-4.7-4.7s2.1-4.7 4.7-4.7h41.3c2 0 3.7-1.7 3.7-3.7v-11.6c0-2-1.7-3.7-3.7-3.7h-56.3c-2.6 0-4.7-2.1-4.7-4.7s2.1-4.7 4.7-4.7h56.3c7.3 0 13.2 5.9 13.2 13.2v11.6c0 7.1-5.9 13-13.2 13z" fill="#000000" fill-opacity="1" data-original-color="#000000ff" stroke="none" stroke-opacity="1"/><path id="_464301208" d="m94.3 418.2h-52.3c-7.3 0-13.2-5.9-13.2-13.2v-44.8c0-7.3 5.9-13.2 13.2-13.2h255.9c2.6 0 4.7 2.1 4.7 4.7s-2.1 4.7-4.7 4.7h-255.9c-2 0-3.7 1.7-3.7 3.7v44.8c0 2 1.7 3.7 3.7 3.7h52.3c2.6 0 4.7 2.1 4.7 4.7 0 2.8-2.1 4.9-4.7 4.9zm102.2 0h-33.2c-2.6 0-4.7-2.1-4.7-4.7s2.1-4.7 4.7-4.7h33.2c2.6 0 4.7 2.1 4.7 4.7.1 2.6-2.1 4.7-4.7 4.7zm101.4 0h-39.8c-2.6 0-4.7-2.1-4.7-4.7s2.1-4.7 4.7-4.7h39.8c2.6 0 4.7 2.1 4.7 4.7.1 2.6-2.1 4.7-4.7 4.7z" fill="#000000" fill-opacity="1" data-original-color="#000000ff" stroke="none" stroke-opacity="1"/><path id="_464300248" d="m426.4 323h-80.4c-2.6 0-4.7-2.1-4.7-4.7v-52.7c0-2.6 2.1-4.7 4.7-4.7h61.6c2.6 0 4.7 2.1 4.7 4.7s-2.1 4.7-4.7 4.7h-56.9v43.2h75.7c2.6 0 4.7 2.1 4.7 4.7 0 2.7-2.1 4.8-4.7 4.8z" fill="#000000" fill-opacity="1" data-original-color="#000000ff" stroke="none" stroke-opacity="1"/><path id="_464300776" d="m449.5 373.8h-17.7c-5.8 0-10.5-4.7-10.5-10.5v-7.4c0-5.8 4.7-10.5 10.5-10.5h17.5c2.6 0 4.7 2.1 4.7 4.7s-2.1 4.7-4.7 4.7h-17.5c-.5 0-1 .5-1 1v7.4c0 .5.5 1 1 1h17.7c2.6 0 4.7 2.1 4.7 4.7.1 2.8-2 4.9-4.7 4.9z" fill="#000000" fill-opacity="1" data-original-color="#000000ff" stroke="none" stroke-opacity="1"/><path id="_464300896" d="m269.2 356.6c-2.6 0-4.7-2.1-4.7-4.7v-203c0-6.5 5.3-11.8 11.8-11.8h14.5c6.5 0 11.8 5.3 11.8 11.8v95.1c0 2.6-2.1 4.7-4.7 4.7s-4.7-2.1-4.7-4.7v-95.1c0-1.3-1.1-2.4-2.4-2.4h-14.5c-1.3 0-2.4 1.1-2.4 2.4v202.9c0 2.6-2.1 4.8-4.7 4.8z" fill="#000000" fill-opacity="1" data-original-color="#000000ff" stroke="none" stroke-opacity="1"/><path id="_464300416" d="m190.8 335.9h-100c-2.6 0-4.7-2.1-4.7-4.7s2.1-4.7 4.7-4.7h100c2.6 0 4.7 2.1 4.7 4.7.1 2.6-2.1 4.7-4.7 4.7zm-127.1-99.7 4.5 1.6s0 0 0-.1zm173.2 100c-1.6 0-3.4-.1-5.3-.3-2.6-.3-4.4-2.7-4.1-5.3s2.7-4.4 5.3-4.1c5.2.6 9 .1 10.7-1.4.4-.4 1.6-1.4 1.5-5.1-.1-4.2-.1-8.4 0-12.5 0-2.1 0-4.1 0-6.2 0-20.5-17.7-25.2-44.8-30.2-2-.4-4-.7-6-1.1-.9-.2-1.7-.6-2.4-1.3l-29.7-28.7c-2.3-2.3-2.3-2.3-6.5-2.3 0 0 0 0-.1 0h-87.3c2.6 5.1 1.4 9.2-.1 11.7-12 21.1-14.5 21.6-16.4 22.1-.6.1-1.9 1.2-3.4 4.5-5.9 12.9-6.2 39.5-4.2 44.2.4.4 1 .9 1.6 1.5 1.7 1.6 4.3 4.1 5.8 4.8 2.4 1.1 3.4 4 2.2 6.3-1.1 2.4-4 3.4-6.3 2.2-2.9-1.4-5.9-4.2-8.3-6.5-.6-.6-1.2-1.1-1.7-1.6-6.2-5.7-4.1-33.9-.5-47 2.7-9.9 6.5-15.6 11.6-17.3 1.8-2 6.6-9.5 11.3-17.8.3-.6.6-1.2-.2-2.7-1.5-3-1.4-6.4.4-9.2 1.7-2.8 4.7-4.5 8.1-4.5h87.2c5.8 0 8.3.2 13.3 4.9l28.7 27.8c1.5.3 3 .6 4.5.8 23.4 4.3 52.6 9.6 52.6 39.5v6.2c0 4-.1 8.2 0 12.3.1 5.3-1.5 9.4-4.6 12.3-3 2.6-7.3 4-12.9 4z" fill="#000000" fill-opacity="1" data-original-color="#000000ff" stroke="none" stroke-opacity="1"/><path id="_464300320" d="m70.2 315.2c-8.8 0-15.9 7.2-15.9 15.9 0 8.8 7.2 15.9 15.9 15.9 8.8 0 15.9-7.2 15.9-15.9s-7.1-15.9-15.9-15.9zm0 41.4c-14 0-25.4-11.4-25.4-25.4s11.4-25.4 25.4-25.4 25.4 11.4 25.4 25.4-11.4 25.4-25.4 25.4z" fill="#000000" fill-opacity="1" data-original-color="#000000ff" stroke="none" stroke-opacity="1"/><path id="_464300488" d="m211.5 315.2c-8.8 0-15.9 7.2-15.9 15.9 0 8.8 7.2 15.9 15.9 15.9 8.8 0 15.9-7.2 15.9-15.9s-7.1-15.9-15.9-15.9zm0 41.4c-14 0-25.4-11.4-25.4-25.4s11.4-25.4 25.4-25.4 25.4 11.4 25.4 25.4-11.4 25.4-25.4 25.4z" fill="#000000" fill-opacity="1" data-original-color="#000000ff" stroke="none" stroke-opacity="1"/><path id="_464300392" d="m143.8 305.5h-10.2c-2.6 0-4.7-2.1-4.7-4.7s2.1-4.7 4.7-4.7h10.2c2.6 0 4.7 2.1 4.7 4.7.1 2.5-2 4.7-4.7 4.7z" fill="#000000" fill-opacity="1" data-original-color="#000000ff" stroke="none" stroke-opacity="1"/><path id="_464300464" d="m210 297.8h-5.2c-2.6 0-4.7-2.1-4.7-4.7s2.1-4.7 4.7-4.7h5.2c2.6 0 4.7 2.1 4.7 4.7 0 2.5-2.1 4.7-4.7 4.7z" fill="#000000" fill-opacity="1" data-original-color="#000000ff" stroke="none" stroke-opacity="1"/><path id="_464300800" d="m65.1 298.3h-5.1c-2.6 0-4.7-2.1-4.7-4.7s2.1-4.7 4.7-4.7h5.2c2.6 0 4.7 2.1 4.7 4.7s-2.1 4.7-4.8 4.7z" fill="#000000" fill-opacity="1" data-original-color="#000000ff" stroke="none" stroke-opacity="1"/><path id="_464300584" d="m70.2 335.9c-2.6 0-4.7-2.1-4.7-4.7s2.1-4.7 4.7-4.7 4.7 2.1 4.7 4.7-2.1 4.7-4.7 4.7z" fill="#000000" fill-opacity="1" data-original-color="#000000ff" stroke="none" stroke-opacity="1"/><path id="_464299960" d="m211.5 335.9c-2.6 0-4.7-2.1-4.7-4.7s2.1-4.7 4.7-4.7 4.7 2.1 4.7 4.7-2.1 4.7-4.7 4.7z" fill="#000000" fill-opacity="1" data-original-color="#000000ff" stroke="none" stroke-opacity="1"/><path id="_464300104" d="m84.8 253.1c-1 0-1.9.6-2.2 1.5l-6.1 16.5c-.4 1 0 1.8.3 2.2s.9 1 2 1h27l-6.4-21.3zm27.2 30.7h-33.3c-3.9 0-7.5-1.9-9.7-5.1s-2.7-7.2-1.4-10.9l6.1-16.5c1.7-4.7 6.1-7.7 11.1-7.7h18c2.1 0 3.9 1.4 4.5 3.4l9.2 30.7c.4 1.4.2 3-.7 4.2s-2.3 1.9-3.8 1.9zm20-9.5h37.6c1.4 0 2-1 2.2-1.5.2-.4.5-1.6-.5-2.6l-17-16.5c-.5-.5-1-.7-1.6-.7h-26.9zm37.6 9.5h-41.1c-2.1 0-3.9-1.4-4.5-3.4l-9.2-30.7c-.4-1.4-.2-3 .7-4.2s2.3-1.9 3.8-1.9h33.3c3.1 0 6 1.2 8.2 3.3l17 16.5c3.5 3.4 4.6 8.5 2.7 13-1.8 4.5-6.1 7.4-10.9 7.4z" fill="#000000" fill-opacity="1" data-original-color="#000000ff" stroke="none" stroke-opacity="1"/><path id="_464299816" d="m269.2 167.2c-.8 0-1.6-.2-2.4-.6l-161.3-93.1c-5.7-3.3-7.6-10.5-4.3-16.2l7.3-12.6c1.6-2.7 4.1-4.7 7.2-5.5s6.3-.4 9 1.2l168.6 97.3c2.3 1.3 3 4.2 1.7 6.5s-4.2 3-6.5 1.7l-168.6-97.3c-.7-.4-1.4-.3-1.8-.2s-1 .4-1.4 1.1l-7.3 12.5c-.6 1.1-.2 2.6.9 3.2l161.3 93.1c2.3 1.3 3 4.2 1.7 6.5-.9 1.6-2.5 2.4-4.1 2.4z" fill="#000000" fill-opacity="1" data-original-color="#000000ff" stroke="none" stroke-opacity="1"/><path id="_464299720" d="m122 179.2c-10.1 0-18.4-8.2-18.4-18.4 0-2.6 2.1-4.7 4.7-4.7s4.7 2.1 4.7 4.7c0 4.9 4 8.9 8.9 8.9s8.9-4 8.9-8.9-4-8.9-8.9-8.9c-2.6 0-4.7-2.1-4.7-4.7v-69.7c0-2.6 2.1-4.7 4.7-4.7s4.7 2.1 4.7 4.7v65.6c7.8 2.1 13.6 9.3 13.6 17.7.2 10.2-8.1 18.4-18.2 18.4z" fill="#000000" fill-opacity="1" data-original-color="#000000ff" stroke="none" stroke-opacity="1"/><path id="_464300152" d="m202.2 405.9c-.5 0-.9.4-.9.9v13.4c0 .5.4.9.9.9h50.3c.5 0 .9-.4.9-.9v-13.4c0-.5-.4-.9-.9-.9zm50.3 24.7h-50.3c-5.7 0-10.4-4.7-10.4-10.4v-13.4c0-5.7 4.7-10.4 10.4-10.4h50.3c5.7 0 10.4 4.7 10.4 10.4v13.4c-.1 5.7-4.7 10.4-10.4 10.4z" fill="#000000" fill-opacity="1" data-original-color="#000000ff" stroke="none" stroke-opacity="1"/><path id="_464299672" d="m122 65.6c-2.6 0-4.7-2.1-4.7-4.7s2.1-4.7 4.7-4.7 4.7 2.1 4.7 4.7c0 2.5-2.1 4.7-4.7 4.7z" fill="#000000" fill-opacity="1" data-original-color="#000000ff" stroke="none" stroke-opacity="1"/></g></g></g></svg>