<svg width="800" height="800" viewBox="0 0 800 800" fill="none" xmlns="http://www.w3.org/2000/svg">
<path d="M159.892 561.445C107.509 578.984 69.748 628.417 69.748 686.702V767.158C69.748 778.32 78.798 787.369 89.959 787.369H159.892V561.445Z" fill="#00265A"/>
<path d="M116.803 767.158V686.703C116.803 642.33 138.706 603.105 172.268 579.159V561.445C119.886 578.984 82.123 628.417 82.123 686.702V767.158C82.123 778.32 91.173 787.369 102.334 787.369H137.014C125.851 787.369 116.803 778.32 116.803 767.158Z" fill="#00265A"/>
<path d="M399.957 571.83C437.674 571.83 463.433 541.966 468.23 535.966L469.052 534.909V505.578C457.227 508.441 444.877 509.969 432.174 509.969H426.203H426.2H373.797H367.824C355.116 509.969 342.771 508.441 330.947 505.58V534.911L331.841 536.064C336.808 542.272 362.424 571.83 399.957 571.83Z" fill="#E2AF7D"/>
<path d="M375.529 606.1L374.635 602.864V550.82V520.575V480.8C362.7 480.337 351.096 476.098 339.955 468.531V550.82L340.849 554.056C344.935 568.383 362.996 627.037 390.171 647.395C382.513 629.542 377.458 612.87 375.529 606.1Z" fill="#DB995D"/>
<path d="M521.635 72.9188V32.8437C521.635 21.6828 512.585 12.6328 501.424 12.6328H293.215C282.054 12.6328 273.004 21.6828 273.004 32.8437V72.9203" fill="#7C7A75"/>
<path d="M316.687 70.2297V32.8437C316.687 21.6828 325.738 12.6328 336.898 12.6328H302.219C291.058 12.6328 282.008 21.6828 282.008 32.8437V70.2297V72.9188V110.305H316.687V72.9188V70.2297Z" fill="#6B6861"/>
<path d="M442.382 72.918H341.04H252.046C229.714 72.918 211.615 91.0227 211.615 113.349V182.459V190.879V235.801V244.221V345.341V353.762C211.615 440.032 281.553 509.97 367.823 509.97H432.175C518.445 509.97 588.382 440.032 588.382 353.762V345.341V244.221V235.801V190.879V182.459V113.349C588.382 91.0227 570.284 72.918 547.954 72.918H487.854" fill="#FABA0D"/>
<path d="M255.301 353.766V345.345V244.225V235.805V190.883V182.463V113.353C255.301 91.0266 273.399 72.9219 295.732 72.9219H261.052C238.72 72.9219 220.621 91.0266 220.621 113.353V182.463V190.883V235.805V244.225V345.345V353.766C220.621 440.036 290.559 509.973 376.829 509.973H411.509C325.238 509.972 255.301 440.036 255.301 353.766Z" fill="#FABA0D"/>
<path d="M268.227 159.727V271.302C268.227 292.181 326.022 309.108 397.317 309.108C468.613 309.108 526.412 292.181 526.412 271.302V159.727H268.227Z" fill="white"/>
<path d="M311.069 291.359V158.883H284.811C280.159 158.883 276.391 162.652 276.391 167.303V271.3C276.391 281.867 289.986 291.313 312.342 298.22C311.511 295.973 311.069 293.684 311.069 291.359Z" fill="white"/>
<g opacity="0.15">
<path d="M613.867 161.984H590.867H588.078V115.605C588.078 93.2789 569.979 75.1742 547.65 75.1742H521.331V72.4852V35.0977C521.331 23.9367 512.281 14.8867 501.12 14.8867H401.49C383.236 52.7977 373.006 95.3008 373.006 140.193C373.006 269.891 458.387 379.645 576.006 416.32C583.778 397.765 588.078 377.395 588.078 356.016V347.596V273.735H590.867H613.867C625.031 273.735 634.078 264.685 634.078 253.524V182.191C634.078 171.032 625.031 161.984 613.867 161.984Z" fill="#F5F5F5"/>
</g>
<path d="M521.871 787.368H566.868V555.121C566.868 554.946 566.891 554.776 566.895 554.601L469.052 534.91L468.23 535.966C463.434 541.968 437.674 571.83 399.957 571.83C362.424 571.83 336.809 542.271 331.843 536.065L330.949 534.912L233.02 554.602C233.026 554.777 233.046 554.948 233.046 555.123V787.368H476.401" fill="#00265A"/>
<path d="M519.962 545.159L469.052 534.914L468.23 535.97C463.434 541.972 437.674 571.834 399.957 571.834C362.424 571.834 336.809 542.275 331.843 536.069L330.949 534.916L280.035 545.152C301.029 590.402 346.834 621.8 400.001 621.8C453.16 621.797 498.965 590.403 519.962 545.159Z" fill="#80E0A7"/>
<path d="M640.02 561.418V787.368H710.038C721.199 787.368 730.249 778.321 730.249 767.157V686.702C730.249 628.387 692.445 578.932 640.02 561.418Z" fill="#00265A"/>
<path d="M640.019 787.368V555.121C640.019 543.96 630.973 534.91 619.808 534.91H587.078C575.917 534.91 566.867 543.96 566.867 555.121V787.366L640.019 787.368Z" fill="#FFB92E"/>
<path d="M233.042 787.368V555.121C233.042 543.96 223.996 534.91 212.831 534.91H180.1C168.939 534.91 159.889 543.96 159.889 555.121V787.366L233.042 787.368Z" fill="#FFB92E"/>
<path d="M233.042 640.504H159.896V787.366H233.042V640.504Z" fill="#F28838"/>
<path d="M640.014 640.504H566.869V787.366H640.014V640.504Z" fill="#F28838"/>
<path d="M233.086 787.369V733.445H566.911V787.369" fill="#FFB92E"/>
<path d="M614.172 159.727H588.381V271.481H614.172C625.336 271.481 634.382 262.431 634.382 251.27V179.938C634.382 168.777 625.336 159.727 614.172 159.727Z" fill="#7C7A75"/>
<path d="M185.826 159.727H211.617V271.481H185.826C174.662 271.481 165.615 262.431 165.615 251.27V179.938C165.615 168.777 174.662 159.727 185.826 159.727Z" fill="#7C7A75"/>
<path d="M222.812 534.963C222.489 534.947 222.167 534.914 221.839 534.914H189.107C177.946 534.914 168.896 543.964 168.896 555.125V787.37H203.576V555.123C203.576 544.291 212.106 535.475 222.812 534.963Z" fill="#EF9A1D"/>
<path d="M203.57 640.504H168.891V787.366H203.57V640.504Z" fill="#EF711D"/>
<path d="M652.524 552.603C651.229 535.67 637.068 522.278 619.81 522.278H587.079C574.454 522.278 563.486 529.45 557.991 539.923L522.454 532.772C522.454 532.772 522.452 532.772 522.45 532.772L481.682 524.566V515.188C550.697 493.978 601.011 429.637 601.011 353.761V284.111H614.171C632.28 284.111 647.013 269.378 647.013 251.269V179.938C647.013 161.828 632.28 147.095 614.171 147.095H601.011V113.348C601.011 84.0906 577.208 60.2859 547.952 60.2859H534.264V32.8422C534.264 14.7328 519.532 0 501.422 0H293.214C275.105 0 260.372 14.7328 260.372 32.8422V60.2859H252.047C222.789 60.2859 198.985 84.0906 198.985 113.348V147.095H185.825C167.716 147.095 152.983 161.828 152.983 179.938V251.27C152.983 269.38 167.716 284.113 185.825 284.113H198.985V353.763C198.985 429.641 249.3 493.981 318.318 515.191V524.567L277.544 532.764C277.543 532.764 277.541 532.764 277.539 532.766L241.924 539.927C236.43 529.45 225.463 522.278 212.836 522.278H180.105C162.835 522.278 148.668 535.688 147.389 552.636C93.0457 574.672 57.1191 627.439 57.1191 686.702V767.158C57.1191 785.267 71.852 800 89.9613 800H159.894H233.046H476.4C483.379 800 489.032 794.347 489.032 787.369C489.032 780.391 483.379 774.738 476.4 774.738H245.718V746.077H554.238V774.738H521.872C514.894 774.738 509.241 780.391 509.241 787.369C509.241 794.347 514.894 800 521.872 800H566.869H640.021H710.039C728.149 800 742.882 785.267 742.882 767.158V686.702C742.882 627.397 706.919 574.617 652.524 552.603ZM587.079 547.544H619.81C623.988 547.544 627.389 550.944 627.389 555.123V561.419V627.866H579.5V555.453C579.51 555.27 579.518 555.088 579.522 554.905C579.639 550.828 582.974 547.544 587.079 547.544ZM627.388 774.738H579.543V733.445C579.543 733.159 579.519 732.88 579.5 732.598V653.13H627.389L627.388 774.738ZM326.125 548.764C326.139 548.78 326.155 548.797 326.169 548.811C326.275 548.927 326.393 549.052 326.502 549.17C326.764 549.453 327.03 549.739 327.311 550.037C327.471 550.208 327.638 550.381 327.804 550.555C328.058 550.819 328.316 551.088 328.582 551.361C328.761 551.547 328.947 551.733 329.135 551.923C329.411 552.203 329.693 552.486 329.982 552.772C330.175 552.964 330.368 553.155 330.566 553.35C330.885 553.661 331.213 553.978 331.546 554.298C331.729 554.475 331.91 554.648 332.099 554.83C332.608 555.311 333.132 555.802 333.672 556.297C333.733 556.353 333.796 556.408 333.855 556.464C334.371 556.936 334.902 557.412 335.447 557.892C335.66 558.08 335.88 558.267 336.097 558.456C336.489 558.798 336.885 559.141 337.291 559.484C337.546 559.7 337.804 559.916 338.063 560.131C338.457 560.459 338.857 560.789 339.261 561.12C339.53 561.339 339.802 561.558 340.077 561.778C340.502 562.117 340.935 562.456 341.371 562.795C341.638 563.005 341.905 563.212 342.177 563.422C342.693 563.816 343.219 564.209 343.752 564.603C343.96 564.756 344.158 564.909 344.369 565.061C345.107 565.6 345.86 566.136 346.63 566.669C346.846 566.819 347.068 566.966 347.285 567.116C347.854 567.505 348.427 567.892 349.011 568.278C349.316 568.478 349.625 568.677 349.936 568.877C350.454 569.209 350.972 569.541 351.502 569.87C351.839 570.08 352.179 570.288 352.519 570.495C353.044 570.814 353.579 571.13 354.116 571.445C354.461 571.647 354.805 571.848 355.155 572.048C355.739 572.381 356.335 572.706 356.932 573.033C357.241 573.202 357.546 573.373 357.86 573.539C358.747 574.011 359.649 574.475 360.564 574.928C360.636 574.964 360.71 574.998 360.782 575.034C361.677 575.473 362.589 575.903 363.511 576.323C363.836 576.472 364.168 576.611 364.497 576.758C365.155 577.048 365.816 577.336 366.488 577.616C366.872 577.775 367.261 577.931 367.65 578.086C368.289 578.342 368.93 578.591 369.579 578.834C369.982 578.986 370.385 579.134 370.791 579.281C371.46 579.522 372.136 579.753 372.818 579.98C373.207 580.109 373.593 580.242 373.985 580.366C374.786 580.622 375.599 580.863 376.413 581.097C376.691 581.178 376.963 581.264 377.241 581.341C378.336 581.644 379.446 581.93 380.568 582.194C380.846 582.259 381.129 582.316 381.408 582.378C382.26 582.57 383.118 582.755 383.986 582.922C384.399 583.002 384.814 583.072 385.232 583.145C385.985 583.28 386.741 583.406 387.505 583.522C387.958 583.589 388.413 583.653 388.869 583.714C389.622 583.816 390.38 583.905 391.143 583.986C391.599 584.034 392.054 584.084 392.513 584.123C393.336 584.197 394.169 584.253 395.004 584.302C395.402 584.325 395.799 584.358 396.2 584.373C397.439 584.43 398.688 584.464 399.95 584.464C401.214 584.464 402.464 584.428 403.707 584.373C404.105 584.355 404.5 584.325 404.896 584.302C405.736 584.252 406.575 584.195 407.404 584.122C407.857 584.081 408.307 584.033 408.758 583.986C409.532 583.903 410.299 583.814 411.063 583.711C411.511 583.65 411.957 583.589 412.402 583.522C413.183 583.405 413.957 583.275 414.729 583.136C415.127 583.066 415.529 582.998 415.924 582.922C416.86 582.742 417.786 582.542 418.707 582.333C418.918 582.286 419.132 582.244 419.341 582.195C420.471 581.93 421.586 581.641 422.688 581.336C422.985 581.253 423.274 581.163 423.569 581.078C424.372 580.847 425.171 580.609 425.96 580.359C426.344 580.237 426.721 580.109 427.102 579.983C427.797 579.752 428.488 579.514 429.171 579.269C429.561 579.13 429.949 578.988 430.335 578.842C431.013 578.588 431.685 578.327 432.352 578.059C432.71 577.916 433.068 577.775 433.421 577.628C434.163 577.32 434.896 577.002 435.624 576.68C435.883 576.566 436.146 576.455 436.404 576.337C437.385 575.892 438.352 575.434 439.305 574.967C439.452 574.895 439.594 574.819 439.741 574.745C440.541 574.347 441.333 573.941 442.111 573.528C442.411 573.369 442.703 573.206 443 573.045C443.621 572.708 444.235 572.37 444.839 572.025C445.16 571.844 445.479 571.658 445.794 571.475C446.375 571.136 446.947 570.795 447.516 570.45C447.816 570.269 448.116 570.086 448.411 569.903C449.013 569.531 449.602 569.153 450.186 568.777C450.427 568.62 450.674 568.467 450.91 568.309C452.547 567.233 454.119 566.141 455.627 565.039C455.839 564.884 456.043 564.73 456.254 564.575C456.791 564.178 457.321 563.78 457.841 563.383C458.086 563.194 458.329 563.008 458.569 562.82C459.044 562.452 459.513 562.083 459.974 561.714C460.211 561.523 460.447 561.334 460.682 561.145C461.152 560.762 461.611 560.383 462.066 560.003C462.263 559.838 462.461 559.675 462.655 559.511C463.211 559.041 463.752 558.575 464.28 558.109C464.358 558.042 464.436 557.975 464.514 557.908C465.129 557.366 465.725 556.83 466.304 556.302C466.421 556.194 466.532 556.089 466.647 555.983C467.094 555.57 467.533 555.162 467.958 554.759C468.127 554.6 468.289 554.442 468.455 554.284C468.821 553.934 469.179 553.587 469.527 553.245C469.688 553.087 469.847 552.93 470.004 552.773C470.35 552.428 470.688 552.091 471.016 551.758C471.147 551.623 471.28 551.491 471.41 551.356C471.78 550.975 472.138 550.605 472.483 550.241C472.554 550.167 472.629 550.089 472.697 550.017C472.733 549.98 472.769 549.942 472.805 549.905C473.172 549.517 473.522 549.139 473.86 548.773L500.627 554.159C478.825 588.022 440.882 609.173 400.004 609.173C359.119 609.173 321.174 588.02 299.374 554.153L326.125 548.764ZM614.171 172.359C618.349 172.359 621.75 175.759 621.75 179.939V251.272C621.75 255.45 618.35 258.852 614.171 258.852H601.011V172.359H614.171ZM185.825 258.848C181.647 258.848 178.246 255.448 178.246 251.269V179.936C178.246 175.758 181.646 172.356 185.825 172.356H198.985V258.847L185.825 258.848ZM224.246 353.764V271.481V159.727V113.348C224.246 98.0187 236.716 85.5484 252.046 85.5484H442.382C449.36 85.5484 455.013 79.8953 455.013 72.9172C455.013 65.9391 449.36 60.2859 442.382 60.2859H285.635V32.8422C285.635 28.6641 289.035 25.2625 293.214 25.2625H501.425C505.603 25.2625 509.005 28.6625 509.005 32.8422V60.2859H487.857C480.879 60.2859 475.225 65.9391 475.225 72.9172C475.225 79.8953 480.879 85.5484 487.857 85.5484H547.957C563.285 85.5484 575.754 98.0187 575.754 113.348V159.727V271.481V353.764C575.754 422.962 526.543 480.881 461.28 494.37C461.061 494.416 460.843 494.455 460.622 494.498C458.614 494.903 456.589 495.264 454.554 495.584C454.302 495.623 454.052 495.67 453.8 495.709C451.75 496.02 449.683 496.275 447.605 496.5C447.132 496.55 446.66 496.602 446.186 496.648C444.133 496.848 442.071 497.009 439.994 497.122C439.604 497.142 439.213 497.156 438.824 497.173C436.619 497.275 434.407 497.342 432.179 497.342H367.827C365.596 497.342 363.38 497.275 361.172 497.173C360.786 497.155 360.4 497.144 360.013 497.122C357.929 497.009 355.855 496.848 353.793 496.647C353.336 496.603 352.88 496.553 352.424 496.505C350.33 496.281 348.246 496.023 346.179 495.708C345.955 495.673 345.732 495.634 345.51 495.598C343.432 495.272 341.364 494.905 339.318 494.491C339.129 494.453 338.941 494.42 338.754 494.381C273.472 480.9 224.246 422.972 224.246 353.764ZM349.052 521.553C349.321 521.583 349.589 521.617 349.858 521.645C351.708 521.842 353.564 522.009 355.433 522.145C355.711 522.166 355.991 522.18 356.269 522.197C357.824 522.303 359.385 522.386 360.949 522.448C361.414 522.467 361.877 522.487 362.341 522.5C364.161 522.559 365.986 522.598 367.819 522.598H432.171C434.007 522.598 435.833 522.558 437.658 522.498C438.114 522.483 438.572 522.464 439.029 522.447C440.621 522.383 442.208 522.298 443.788 522.191C444.038 522.173 444.286 522.161 444.535 522.144C446.424 522.006 448.305 521.837 450.179 521.637C450.402 521.614 450.625 521.586 450.847 521.559C452.529 521.373 454.2 521.163 455.864 520.928C456.047 520.903 456.233 520.884 456.418 520.859V530.392C456.307 530.52 456.196 530.647 456.077 530.781C456.019 530.847 455.964 530.911 455.904 530.977C455.694 531.211 455.474 531.455 455.247 531.706C455.186 531.773 455.13 531.838 455.068 531.905C454.807 532.189 454.53 532.486 454.246 532.791C454.211 532.827 454.182 532.859 454.147 532.895C453.494 533.589 452.779 534.327 452.004 535.1C451.939 535.162 451.872 535.228 451.808 535.292C451.491 535.608 451.166 535.923 450.83 536.248C450.716 536.358 450.597 536.47 450.482 536.581C450.183 536.866 449.882 537.152 449.569 537.442C449.427 537.575 449.282 537.708 449.136 537.841C448.838 538.116 448.535 538.389 448.225 538.667C448.061 538.814 447.897 538.961 447.73 539.108C447.421 539.383 447.104 539.658 446.782 539.934C446.61 540.083 446.438 540.231 446.261 540.381C445.929 540.666 445.585 540.95 445.239 541.237C445.066 541.381 444.894 541.525 444.718 541.669C444.338 541.977 443.949 542.288 443.557 542.598C443.405 542.719 443.257 542.837 443.104 542.959C442.575 543.372 442.035 543.784 441.482 544.197C441.458 544.214 441.438 544.231 441.414 544.247C440.83 544.681 440.232 545.116 439.622 545.547C439.489 545.641 439.35 545.734 439.216 545.828C438.746 546.156 438.271 546.484 437.788 546.809C437.579 546.948 437.364 547.087 437.155 547.225C436.735 547.502 436.313 547.778 435.882 548.05C435.636 548.205 435.386 548.358 435.139 548.513C434.73 548.766 434.318 549.017 433.9 549.267C433.635 549.425 433.366 549.583 433.097 549.738C432.68 549.98 432.258 550.219 431.832 550.456C431.557 550.609 431.282 550.761 431.004 550.913C430.569 551.147 430.13 551.377 429.688 551.606C429.408 551.752 429.13 551.895 428.847 552.037C428.377 552.273 427.9 552.5 427.422 552.73C427.16 552.855 426.899 552.983 426.632 553.105C426.071 553.362 425.502 553.614 424.929 553.859C424.736 553.942 424.547 554.03 424.354 554.111C423.582 554.436 422.799 554.75 422.005 555.048C421.86 555.105 421.71 555.153 421.564 555.206C420.918 555.445 420.268 555.68 419.607 555.902C419.327 555.995 419.041 556.081 418.758 556.173C418.224 556.345 417.689 556.516 417.149 556.673C416.822 556.769 416.491 556.859 416.16 556.95C415.649 557.092 415.139 557.23 414.621 557.358C414.271 557.445 413.919 557.528 413.564 557.609C413.058 557.727 412.547 557.839 412.032 557.945C411.668 558.019 411.302 558.092 410.933 558.161C410.414 558.259 409.891 558.347 409.364 558.43C408.997 558.489 408.632 558.547 408.261 558.6C407.716 558.678 407.163 558.742 406.611 558.806C406.253 558.847 405.899 558.891 405.539 558.927C404.93 558.984 404.313 559.027 403.696 559.064C403.388 559.084 403.082 559.111 402.771 559.127C401.839 559.17 400.902 559.197 399.954 559.197C399.008 559.197 398.074 559.172 397.146 559.127C396.841 559.111 396.539 559.084 396.236 559.066C395.618 559.027 395.002 558.986 394.393 558.928C394.033 558.894 393.68 558.848 393.325 558.808C392.93 558.764 392.535 558.716 392.144 558.663C391.993 558.642 391.838 558.627 391.686 558.605C391.316 558.553 390.949 558.494 390.582 558.434C390.063 558.352 389.546 558.264 389.033 558.17C388.661 558.102 388.293 558.027 387.924 557.952C387.422 557.848 386.922 557.739 386.425 557.625C386.063 557.541 385.704 557.456 385.344 557.367C384.846 557.242 384.352 557.111 383.86 556.975C383.514 556.881 383.168 556.786 382.825 556.686C382.321 556.537 381.822 556.381 381.325 556.22C381.008 556.119 380.689 556.022 380.375 555.916C379.835 555.734 379.302 555.542 378.771 555.348C378.51 555.255 378.244 555.163 377.985 555.066C377.327 554.816 376.68 554.556 376.036 554.291C375.914 554.241 375.791 554.195 375.669 554.144C375.65 554.136 375.632 554.127 375.613 554.12C374.863 553.805 374.124 553.478 373.394 553.142C373.15 553.03 372.913 552.911 372.671 552.797C372.174 552.561 371.679 552.325 371.191 552.083C370.908 551.941 370.632 551.795 370.352 551.652C369.916 551.427 369.482 551.202 369.054 550.972C368.763 550.814 368.474 550.653 368.186 550.494C367.78 550.269 367.377 550.041 366.979 549.809C366.693 549.644 366.41 549.477 366.127 549.309C365.736 549.077 365.349 548.842 364.966 548.608C364.689 548.438 364.416 548.267 364.144 548.095C363.763 547.855 363.388 547.613 363.016 547.367C362.755 547.197 362.494 547.027 362.238 546.855C361.855 546.598 361.482 546.341 361.108 546.081C360.877 545.922 360.641 545.761 360.414 545.6C360.004 545.309 359.6 545.017 359.202 544.723C359.024 544.592 358.838 544.461 358.661 544.331C357.516 543.48 356.419 542.625 355.375 541.775C355.205 541.637 355.043 541.498 354.874 541.361C354.527 541.075 354.18 540.789 353.844 540.503C353.655 540.344 353.475 540.186 353.291 540.028C352.985 539.764 352.68 539.502 352.383 539.241C352.2 539.08 352.022 538.919 351.844 538.759C351.561 538.506 351.282 538.255 351.008 538.003C350.833 537.844 350.66 537.683 350.489 537.523C350.225 537.278 349.964 537.033 349.71 536.791C349.549 536.636 349.386 536.483 349.229 536.331C348.974 536.086 348.725 535.844 348.483 535.603C348.341 535.464 348.197 535.323 348.058 535.186C347.805 534.934 347.563 534.689 347.324 534.447C347.207 534.327 347.086 534.206 346.972 534.089C346.704 533.811 346.444 533.542 346.191 533.275C346.121 533.202 346.046 533.123 345.977 533.052C345.329 532.364 344.739 531.72 344.213 531.131C344.164 531.075 344.121 531.025 344.071 530.972C343.899 530.778 343.733 530.589 343.575 530.409V520.867C343.786 520.897 343.996 520.917 344.207 520.947C345.816 521.169 347.43 521.372 349.052 521.553ZM172.524 555.122C172.524 550.944 175.924 547.542 180.104 547.542H212.835C216.957 547.542 220.304 550.853 220.397 554.953C220.399 554.995 220.394 555.038 220.396 555.08C220.4 555.195 220.408 555.312 220.414 555.433V627.866H172.525V561.445C172.524 561.447 172.524 555.122 172.524 555.122ZM82.377 767.158V686.702C82.377 641.373 107.832 600.63 147.258 580.423V640.495V774.738H89.9566C85.7785 774.738 82.377 771.336 82.377 767.158ZM172.524 653.128H220.413V774.736H172.524C172.524 774.737 172.524 653.128 172.524 653.128ZM245.674 720.814V640.497V564.942L273.125 559.423C298.438 605.297 347.188 634.43 400 634.43C452.804 634.43 501.554 605.3 526.868 559.433L554.238 564.942V640.5V720.817H245.675L245.674 720.814ZM717.618 767.158C717.618 771.336 714.218 774.738 710.038 774.738H652.65V640.497V580.381C692.129 600.572 717.618 641.333 717.618 686.703V767.158Z" fill="#231F20"/>
<path d="M539.046 271.304V159.729C539.046 152.751 533.393 147.098 526.414 147.098H268.227C261.249 147.098 255.596 152.751 255.596 159.729V271.304C255.596 311.118 344.682 321.741 397.319 321.741C449.958 321.74 539.046 311.118 539.046 271.304ZM280.858 271.12V172.36H513.783V271.121C512.96 273.282 505.479 280.471 481.3 286.968C458.477 293.102 428.654 296.479 397.321 296.479C365.988 296.479 336.161 293.101 313.341 286.968C289.16 280.468 281.68 273.28 280.858 271.12Z" fill="#231F20"/>
<path d="M319.016 354.848C312.038 354.848 306.385 360.501 306.385 367.479V421.374C306.385 428.352 312.038 434.005 319.016 434.005C325.994 434.005 331.647 428.352 331.647 421.374V367.479C331.647 360.502 325.994 354.848 319.016 354.848Z" fill="#231F20"/>
<path d="M480.981 354.848C474.003 354.848 468.35 360.501 468.35 367.479V421.374C468.35 428.352 474.003 434.005 480.981 434.005C487.959 434.005 493.612 428.352 493.612 421.374V367.479C493.612 360.502 487.959 354.848 480.981 354.848Z" fill="#231F20"/>
<path d="M426.993 354.848C420.014 354.848 414.361 360.501 414.361 367.479V421.374C414.361 428.352 420.014 434.005 426.993 434.005C433.971 434.005 439.624 428.352 439.624 421.374V367.479C439.624 360.502 433.971 354.848 426.993 354.848Z" fill="#231F20"/>
<path d="M373.006 354.848C366.028 354.848 360.375 360.501 360.375 367.479V421.374C360.375 428.352 366.028 434.005 373.006 434.005C379.984 434.005 385.637 428.352 385.637 421.374V367.479C385.637 360.502 379.983 354.848 373.006 354.848Z" fill="#231F20"/>
</svg>
